<svg width="1130" height="832" viewBox="0 0 1130 832" fill="none" xmlns="http://www.w3.org/2000/svg">
<g clip-path="url(#clip0_66_835)">
<path opacity="0.1" d="M656.54 124.69C584.1 122.18 515.1 98.78 449.22 73.2C383.34 47.62 318.07 19.27 247.37 5.71001C201.89 -3.00999 149.88 -4.22 113.24 20.14C77.97 43.6 66.58 84.14 60.46 121.69C55.85 149.97 53.14 179.69 65.76 206.2C74.53 224.57 90.1 240.02 100.87 257.62C138.32 318.88 111.87 394.41 71.25 454.21C52.25 482.27 30.12 509.03 15.43 538.9C0.73998 568.77 -6.06002 602.98 6.78998 633.44C19.54 663.64 49.9 686.32 82.79 702.27C149.6 734.67 228.33 743.95 305.1 749.2C475.05 760.78 645.9 755.78 816.29 750.78C879.35 748.91 942.68 747.02 1004.72 737.27C1039.16 731.86 1074.72 723.27 1099.72 702.52C1131.47 676.18 1139.34 631.58 1118.06 598.52C1082.38 543.13 983.71 529.37 958.77 469.92C945.04 437.2 959.14 400.75 979.09 370.4C1021.89 305.29 1093.63 248.18 1097.41 173.76C1100.01 122.65 1065.52 71.46 1012.2 47.28C956.3 21.93 878.8 25.12 837.56 67.08C795.12 110.29 720.5 126.91 656.54 124.69Z" fill="#D417B6"/>
<path d="M664.18 755.89L469.18 753.39L469.75 748.39L479.18 665.89H650.43L663.03 748.39L663.99 754.64L664.18 755.89Z" fill="#D0D2D5"/>
<path opacity="0.1" d="M663.99 754.64H566.68L469.18 753.39L469.75 748.39H663.03L663.99 754.64Z" fill="black"/>
<path d="M436.68 749.64H695.43V755.89H436.68V749.64Z" fill="#D0D2D5"/>
<path d="M942.3 170.37C942.311 168.233 941.9 166.116 941.092 164.138C940.284 162.16 939.095 160.36 937.591 158.842C936.088 157.324 934.3 156.116 932.33 155.289C930.36 154.462 928.247 154.03 926.11 154.02H203.5C201.363 154.029 199.248 154.459 197.277 155.286C195.306 156.113 193.517 157.32 192.012 158.838C190.508 160.357 189.317 162.157 188.509 164.135C187.7 166.114 187.289 168.233 187.3 170.37V608.37H942.3V170.37Z" fill="#444053"/>
<path d="M187.3 604.02V655.32C187.3 657.447 187.719 659.554 188.533 661.519C189.347 663.485 190.541 665.271 192.045 666.775C193.549 668.279 195.335 669.473 197.301 670.287C199.266 671.101 201.373 671.52 203.5 671.52H926.11C930.405 671.517 934.523 669.809 937.559 666.772C940.595 663.734 942.3 659.615 942.3 655.32V604.02H187.3Z" fill="#D0D2D5"/>
<path opacity="0.1" d="M218.55 181.52H914.8V575.27H218.55V181.52Z" fill="#D417B6"/>
<path d="M568.55 652.05C571.107 652.052 573.63 651.473 575.931 650.357C578.231 649.242 580.248 647.618 581.83 645.61C582.31 644.997 582.748 644.352 583.14 643.68L573.88 642.16L583.88 642.24C584.844 640.15 585.37 637.884 585.425 635.583C585.48 633.282 585.063 630.994 584.2 628.86L570.77 635.86L583.16 626.76C581.996 624.763 580.434 623.027 578.571 621.659C576.708 620.291 574.583 619.32 572.33 618.807C570.076 618.294 567.741 618.25 565.469 618.677C563.197 619.104 561.038 619.993 559.124 621.289C557.211 622.586 555.584 624.262 554.345 626.213C553.106 628.164 552.281 630.349 551.921 632.632C551.562 634.916 551.675 637.248 552.255 639.486C552.834 641.724 553.867 643.818 555.29 645.64C556.872 647.641 558.887 649.258 561.184 650.368C563.48 651.479 565.999 652.054 568.55 652.05Z" fill="#D417B6"/>
<path opacity="0.1" d="M585.43 671.52L663.22 749.64L651.29 671.52H585.43Z" fill="black"/>
<path d="M693.4 252.56H241.6C240.164 252.56 239 253.724 239 255.16V523.96C239 525.396 240.164 526.56 241.6 526.56H693.4C694.836 526.56 696 525.396 696 523.96V255.16C696 253.724 694.836 252.56 693.4 252.56Z" fill="white"/>
<path d="M219 181.56H915V204.56H219V181.56Z" fill="white"/>
<path d="M241.22 185.56H222.78C222.349 185.56 222 185.909 222 186.34V198.78C222 199.211 222.349 199.56 222.78 199.56H241.22C241.651 199.56 242 199.211 242 198.78V186.34C242 185.909 241.651 185.56 241.22 185.56Z" fill="#D417B6"/>
<path opacity="0.3" d="M669.42 185.56H460.58C460.26 185.56 460 185.82 460 186.14V198.98C460 199.3 460.26 199.56 460.58 199.56H669.42C669.74 199.56 670 199.3 670 198.98V186.14C670 185.82 669.74 185.56 669.42 185.56Z" fill="#D417B6"/>
<path d="M663.77 194H663.26L663.07 193.84C663.712 193.078 664.066 192.116 664.07 191.12C664.064 190.302 663.816 189.504 663.357 188.827C662.898 188.15 662.249 187.624 661.491 187.316C660.734 187.007 659.902 186.93 659.1 187.094C658.299 187.258 657.564 187.656 656.989 188.237C656.413 188.818 656.022 189.557 655.866 190.359C655.71 191.162 655.795 191.994 656.111 192.748C656.427 193.503 656.959 194.147 657.64 194.599C658.322 195.052 659.122 195.292 659.94 195.29C660.935 195.284 661.898 194.93 662.66 194.29L662.85 194.45V194.97L666.05 198.17L667.05 197.17L663.77 194ZM659.93 194C659.358 194.002 658.797 193.834 658.321 193.517C657.844 193.2 657.472 192.749 657.252 192.221C657.032 191.692 656.974 191.11 657.085 190.549C657.196 189.987 657.472 189.471 657.876 189.066C658.281 188.662 658.797 188.386 659.359 188.275C659.92 188.164 660.502 188.222 661.031 188.442C661.559 188.662 662.01 189.034 662.327 189.511C662.644 189.987 662.812 190.548 662.81 191.12C662.813 191.499 662.74 191.875 662.596 192.225C662.452 192.576 662.24 192.894 661.972 193.162C661.704 193.43 661.386 193.642 661.035 193.786C660.685 193.93 660.309 194.003 659.93 194Z" fill="#444053"/>
<path d="M905 199.56C908.866 199.56 912 196.426 912 192.56C912 188.694 908.866 185.56 905 185.56C901.134 185.56 898 188.694 898 192.56C898 196.426 901.134 199.56 905 199.56Z" fill="#D417B6"/>
<path d="M791.57 229.56H731.43C730.088 229.56 729 230.648 729 231.99V271.13C729 272.472 730.088 273.56 731.43 273.56H791.57C792.912 273.56 794 272.472 794 271.13V231.99C794 230.648 792.912 229.56 791.57 229.56Z" fill="white"/>
<path d="M894.39 229.56H811.61C811.273 229.56 811 229.833 811 230.17V235.95C811 236.287 811.273 236.56 811.61 236.56H894.39C894.727 236.56 895 236.287 895 235.95V230.17C895 229.833 894.727 229.56 894.39 229.56Z" fill="white"/>
<path d="M894.39 244.56H811.61C811.273 244.56 811 244.833 811 245.17V250.95C811 251.287 811.273 251.56 811.61 251.56H894.39C894.727 251.56 895 251.287 895 250.95V245.17C895 244.833 894.727 244.56 894.39 244.56Z" fill="white"/>
<path d="M894.39 259.56H811.61C811.273 259.56 811 259.833 811 260.17V265.95C811 266.287 811.273 266.56 811.61 266.56H894.39C894.727 266.56 895 266.287 895 265.95V260.17C895 259.833 894.727 259.56 894.39 259.56Z" fill="white"/>
<path d="M791.57 298.56H731.43C730.088 298.56 729 299.648 729 300.99V340.13C729 341.472 730.088 342.56 731.43 342.56H791.57C792.912 342.56 794 341.472 794 340.13V300.99C794 299.648 792.912 298.56 791.57 298.56Z" fill="white"/>
<path d="M894.39 298.56H811.61C811.273 298.56 811 298.833 811 299.17V304.95C811 305.287 811.273 305.56 811.61 305.56H894.39C894.727 305.56 895 305.287 895 304.95V299.17C895 298.833 894.727 298.56 894.39 298.56Z" fill="white"/>
<path d="M894.39 313.56H811.61C811.273 313.56 811 313.833 811 314.17V319.95C811 320.287 811.273 320.56 811.61 320.56H894.39C894.727 320.56 895 320.287 895 319.95V314.17C895 313.833 894.727 313.56 894.39 313.56Z" fill="white"/>
<path d="M894.34 328.56H811.66C811.295 328.56 811 328.855 811 329.22V334.9C811 335.265 811.295 335.56 811.66 335.56H894.34C894.705 335.56 895 335.265 895 334.9V329.22C895 328.855 894.705 328.56 894.34 328.56Z" fill="white"/>
<path d="M791.57 367.56H731.43C730.088 367.56 729 368.648 729 369.99V409.13C729 410.472 730.088 411.56 731.43 411.56H791.57C792.912 411.56 794 410.472 794 409.13V369.99C794 368.648 792.912 367.56 791.57 367.56Z" fill="white"/>
<path d="M894.34 367.56H811.66C811.295 367.56 811 367.855 811 368.22V373.9C811 374.265 811.295 374.56 811.66 374.56H894.34C894.705 374.56 895 374.265 895 373.9V368.22C895 367.855 894.705 367.56 894.34 367.56Z" fill="white"/>
<path d="M894.34 382.56H811.66C811.295 382.56 811 382.855 811 383.22V388.9C811 389.265 811.295 389.56 811.66 389.56H894.34C894.705 389.56 895 389.265 895 388.9V383.22C895 382.855 894.705 382.56 894.34 382.56Z" fill="white"/>
<path d="M894.34 397.56H811.66C811.295 397.56 811 397.855 811 398.22V403.9C811 404.265 811.295 404.56 811.66 404.56H894.34C894.705 404.56 895 404.265 895 403.9V398.22C895 397.855 894.705 397.56 894.34 397.56Z" fill="white"/>
<path d="M791.57 436.56H731.43C730.088 436.56 729 437.648 729 438.99V478.13C729 479.472 730.088 480.56 731.43 480.56H791.57C792.912 480.56 794 479.472 794 478.13V438.99C794 437.648 792.912 436.56 791.57 436.56Z" fill="white"/>
<path d="M894.34 436.56H811.66C811.295 436.56 811 436.855 811 437.22V442.9C811 443.265 811.295 443.56 811.66 443.56H894.34C894.705 443.56 895 443.265 895 442.9V437.22C895 436.855 894.705 436.56 894.34 436.56Z" fill="white"/>
<path d="M894.34 451.56H811.66C811.295 451.56 811 451.855 811 452.22V457.9C811 458.265 811.295 458.56 811.66 458.56H894.34C894.705 458.56 895 458.265 895 457.9V452.22C895 451.855 894.705 451.56 894.34 451.56Z" fill="white"/>
<path d="M894.34 466.56H811.66C811.295 466.56 811 466.855 811 467.22V472.9C811 473.265 811.295 473.56 811.66 473.56H894.34C894.705 473.56 895 473.265 895 472.9V467.22C895 466.855 894.705 466.56 894.34 466.56Z" fill="white"/>
<path d="M791.57 505.56H731.43C730.088 505.56 729 506.648 729 507.99V547.13C729 548.472 730.088 549.56 731.43 549.56H791.57C792.912 549.56 794 548.472 794 547.13V507.99C794 506.648 792.912 505.56 791.57 505.56Z" fill="white"/>
<path d="M894.34 505.56H811.66C811.295 505.56 811 505.855 811 506.22V511.9C811 512.265 811.295 512.56 811.66 512.56H894.34C894.705 512.56 895 512.265 895 511.9V506.22C895 505.855 894.705 505.56 894.34 505.56Z" fill="white"/>
<path d="M894.34 520.56H811.66C811.295 520.56 811 520.855 811 521.22V526.9C811 527.265 811.295 527.56 811.66 527.56H894.34C894.705 527.56 895 527.265 895 526.9V521.22C895 520.855 894.705 520.56 894.34 520.56Z" fill="white"/>
<path d="M894.34 535.56H811.66C811.295 535.56 811 535.855 811 536.22V541.9C811 542.265 811.295 542.56 811.66 542.56H894.34C894.705 542.56 895 542.265 895 541.9V536.22C895 535.855 894.705 535.56 894.34 535.56Z" fill="white"/>
<path opacity="0.1" d="M304.92 325.17H407.75V330.5H304.92V325.17ZM314.06 296.99H323.96V325.17H314.06V296.99ZM328.53 296.99H338.43V325.17H328.53V296.99ZM343 296.99H352.9V325.17H343V296.99ZM357.47 296.99H367.37V325.17H357.47V296.99ZM371.94 296.99H381.84V325.17H371.94V296.99ZM386.42 296.99H396.32V325.17H386.42V296.99Z" fill="#D417B6"/>
<path opacity="0.1" d="M314.06 302.32H323.96V305.37H314.06V302.32ZM328.53 302.32H338.43V305.37H328.53V302.32ZM343 302.32H352.9V305.37H343V302.32ZM357.47 302.32H367.37V305.37H357.47V302.32ZM371.94 302.32H381.84V305.37H371.94V302.32ZM386.42 302.32H396.32V305.37H386.42V302.32ZM314.06 316.03H323.96V319.08H314.06V316.03ZM328.53 316.03H338.43V319.08H328.53V316.03ZM343 316.03H352.9V319.08H343V316.03ZM357.47 316.03H367.37V319.08H357.47V316.03ZM371.94 316.03H381.84V319.08H371.94V316.03ZM386.42 316.03H396.32V319.08H386.42V316.03ZM530.37 338.88H633.2V344.21H530.37V338.88ZM539.51 310.7H549.41V338.88H539.51V310.7ZM553.98 310.7H563.88V338.88H553.98V310.7ZM568.45 310.7H578.35V338.88H568.45V310.7ZM582.93 310.7H592.83V338.88H582.93V310.7ZM597.4 310.7H607.3V338.88H597.4V310.7ZM611.87 310.7H621.77V338.88H611.87V310.7Z" fill="#D417B6"/>
<path opacity="0.1" d="M539.51 316.03H549.41V319.08H539.51V316.03ZM553.98 316.03H563.88V319.08H553.98V316.03ZM568.45 316.03H578.35V319.08H568.45V316.03ZM582.93 316.03H592.83V319.08H582.93V316.03ZM597.4 316.03H607.3V319.08H597.4V316.03ZM611.87 316.03H621.77V319.08H611.87V316.03ZM539.51 329.74H549.41V332.79H539.51V329.74ZM553.98 329.74H563.88V332.79H553.98V329.74ZM568.45 329.74H578.35V332.79H568.45V329.74ZM582.93 329.74H592.83V332.79H582.93V329.74ZM597.4 329.74H607.3V332.79H597.4V329.74ZM611.87 329.74H621.77V332.79H611.87V329.74ZM530.37 377.72H633.2V383.05H530.37V377.72ZM539.51 349.54H549.41V377.72H539.51V349.54ZM553.98 349.54H563.88V377.72H553.98V349.54ZM568.45 349.54H578.35V377.72H568.45V349.54ZM582.93 349.54H592.83V377.72H582.93V349.54ZM597.4 349.54H607.3V377.72H597.4V349.54ZM611.87 349.54H621.77V377.72H611.87V349.54Z" fill="#D417B6"/>
<path opacity="0.1" d="M539.51 354.87H549.41V357.92H539.51V354.87ZM553.98 354.87H563.88V357.92H553.98V354.87ZM568.45 354.87H578.35V357.92H568.45V354.87ZM582.93 354.87H592.83V357.92H582.93V354.87ZM597.4 354.87H607.3V357.92H597.4V354.87ZM611.87 354.87H621.77V357.92H611.87V354.87ZM539.51 368.58H549.41V371.63H539.51V368.58ZM553.98 368.58H563.88V371.63H553.98V368.58ZM568.45 368.58H578.35V371.63H568.45V368.58ZM582.93 368.58H592.83V371.63H582.93V368.58ZM597.4 368.58H607.3V371.63H597.4V368.58ZM611.87 368.58H621.77V371.63H611.87V368.58ZM368 385.44C367.233 384.457 366.531 383.425 365.9 382.35L380.71 379.92L364.71 380.04C363.175 376.699 362.338 373.079 362.248 369.404C362.159 365.728 362.819 362.072 364.19 358.66L385.64 369.78L365.83 355.22C367.673 351.987 370.164 349.169 373.148 346.944C376.132 344.72 379.543 343.136 383.168 342.292C386.793 341.449 390.554 341.364 394.213 342.043C397.872 342.722 401.352 344.15 404.433 346.238C407.514 348.325 410.13 351.027 412.117 354.174C414.104 357.321 415.419 360.845 415.98 364.525C416.54 368.204 416.334 371.96 415.373 375.555C414.413 379.151 412.72 382.51 410.4 385.42C411.605 386.941 412.638 388.591 413.48 390.34L394.26 400.34L414.75 393.47C416.183 397.718 416.536 402.257 415.777 406.675C415.017 411.094 413.169 415.254 410.4 418.78C413.54 422.761 415.495 427.545 416.042 432.586C416.589 437.626 415.707 442.719 413.494 447.281C411.282 451.842 407.83 455.689 403.534 458.381C399.237 461.073 394.27 462.5 389.2 462.5C384.13 462.5 379.162 461.073 374.866 458.381C370.569 455.689 367.118 451.842 364.906 447.281C362.693 442.719 361.81 437.626 362.358 432.586C362.905 427.545 364.86 422.761 368 418.78C364.26 414.022 362.228 408.146 362.228 402.095C362.228 396.044 364.26 390.168 368 385.41V385.44Z" fill="#D417B6"/>
<path opacity="0.1" d="M416.18 402.12C416.181 408.165 414.145 414.034 410.4 418.78C413.54 422.761 415.495 427.545 416.042 432.586C416.589 437.626 415.707 442.719 413.494 447.281C411.282 451.842 407.83 455.689 403.534 458.381C399.237 461.073 394.27 462.5 389.2 462.5C384.13 462.5 379.162 461.073 374.866 458.381C370.569 455.689 367.118 451.842 364.906 447.281C362.693 442.719 361.81 437.626 362.358 432.586C362.905 427.545 364.86 422.761 368 418.78C364.37 414.21 416.18 399.09 416.18 402.12Z" fill="#D417B6"/>
<path opacity="0.2" d="M393.52 469.66C393.567 469.731 393.61 469.804 393.65 469.88H384.49C384.54 469.81 384.57 469.73 384.62 469.66C383.832 468.289 383.424 466.732 383.44 465.15C383.436 464.066 383.622 462.99 383.99 461.97C384.5 462.05 385.13 462.14 385.86 462.22C387.985 462.433 390.125 462.433 392.25 462.22C392.863 462.16 393.493 462.08 394.14 461.98C394.135 461.996 394.135 462.014 394.14 462.03C394.504 463.033 394.687 464.093 394.68 465.16C394.7 466.736 394.3 468.29 393.52 469.66Z" fill="#3F3D56"/>
<path opacity="0.1" d="M360.6 469.88H309.6C309.49 469.59 309.39 469.28 309.3 468.98C307.503 463.202 307.711 456.986 309.89 451.34C304.911 447.898 301.234 442.883 299.447 437.099C297.661 431.316 297.87 425.1 300.04 419.45C299.015 418.744 298.043 417.966 297.13 417.12L310.55 410.43L295.29 415.27C292.836 412.532 290.967 409.322 289.798 405.837C288.629 402.351 288.184 398.664 288.49 395L312.3 399.3L289.08 391.23C289.881 387.591 291.426 384.158 293.619 381.145C295.812 378.133 298.604 375.607 301.821 373.726C305.037 371.846 308.608 370.651 312.309 370.218C316.009 369.785 319.759 370.122 323.323 371.209C326.887 372.295 330.188 374.108 333.017 376.532C335.846 378.957 338.143 381.94 339.763 385.295C341.383 388.651 342.291 392.305 342.43 396.028C342.569 399.752 341.936 403.463 340.57 406.93C342.18 408.051 343.666 409.342 345 410.78L329.58 425.99L347.13 413.37C349.76 417.009 351.441 421.247 352.021 425.699C352.6 430.152 352.061 434.679 350.45 438.87C355.293 442.224 358.907 447.07 360.739 452.668C362.572 458.267 362.523 464.312 360.6 469.88Z" fill="#D417B6"/>
<path opacity="0.1" d="M360.6 469.88H309.6C309.49 469.59 309.39 469.28 309.3 468.98C307.503 463.202 307.711 456.986 309.89 451.34C305.09 448.02 350.12 418.27 351.01 421.17C352.807 426.952 352.599 433.171 350.42 438.82C355.279 442.172 358.905 447.025 360.744 452.635C362.582 458.244 362.532 464.302 360.6 469.88ZM591.35 433.34C588.253 438.538 583.493 442.541 577.84 444.7C578.082 446.624 578.119 448.568 577.95 450.5L556.34 449.2L577.45 453.78C576.829 456.657 575.741 459.414 574.23 461.94C572.39 465.034 569.94 467.722 567.03 469.84H537.61V470.61H507.61C507.67 470.35 507.73 470.1 507.8 469.84C508.895 465.703 510.957 461.885 513.817 458.701C516.677 455.518 520.253 453.06 524.25 451.53C523.483 445.527 524.754 439.44 527.86 434.247C530.967 429.053 535.728 425.053 541.38 422.89C541.222 421.653 541.148 420.407 541.16 419.16L555.11 424.67L541.31 416.56C541.717 412.905 542.866 409.372 544.687 406.177C546.508 402.982 548.963 400.193 551.9 397.98L564.61 418.56L555.08 395.9C560.271 393.028 566.264 391.945 572.132 392.819C578 393.694 583.417 396.477 587.545 400.738C591.673 404.999 594.283 410.502 594.97 416.394C595.658 422.287 594.386 428.243 591.35 433.34Z" fill="#D417B6"/>
<path opacity="0.1" d="M574.23 461.98C572.39 465.074 569.94 467.762 567.03 469.88H537.61V470.65H507.61C507.67 470.39 507.73 470.14 507.8 469.88C508.895 465.743 510.957 461.925 513.817 458.741C516.677 455.558 520.253 453.1 524.25 451.57C524 449.57 529.81 449.87 537.56 451.17C552.75 453.72 575.26 460.26 574.23 461.98Z" fill="#D417B6"/>
<path d="M446.71 389.97C446.71 389.97 450.41 409.97 442.15 416.5C433.89 423.03 449.15 462.17 474.33 457.6C499.51 453.03 509.77 420.2 509.77 420.2C509.77 420.2 484.55 414.98 493.9 388.45L446.71 389.97Z" fill="#EE8E9E"/>
<path opacity="0.1" d="M446.71 389.97C446.71 389.97 450.41 409.97 442.15 416.5C433.89 423.03 449.15 462.17 474.33 457.6C499.51 453.03 509.77 420.2 509.77 420.2C509.77 420.2 484.55 414.98 493.9 388.45L446.71 389.97Z" fill="black"/>
<path d="M469 404.65C492.058 404.65 510.75 385.958 510.75 362.9C510.75 339.842 492.058 321.15 469 321.15C445.942 321.15 427.25 339.842 427.25 362.9C427.25 385.958 445.942 404.65 469 404.65Z" fill="#EE8E9E"/>
<path d="M537.61 442.27V470.65H399.75V443.56C399.75 440.125 400.762 436.766 402.659 433.902C404.557 431.039 407.256 428.798 410.42 427.46L414.37 425.78C424.37 421.52 436.52 416.23 440.49 414.03C440.925 413.813 441.334 413.548 441.71 413.24C443.88 411.07 443.45 413.89 443.45 413.89C443.45 413.89 443.39 414.43 443.35 415.36C443.11 421.75 444.03 446.86 473.46 444.77C502.17 442.77 503.46 423.35 503.17 417.64C503.154 417.111 503.11 416.584 503.04 416.06C505.026 416.532 506.969 417.168 508.85 417.96C514.85 420.18 523.71 423.74 526.08 425.42C526.82 425.94 527.72 426.48 528.7 427.03C529.812 427.65 530.851 428.391 531.8 429.24C533.629 430.882 535.091 432.891 536.092 435.136C537.093 437.381 537.61 439.812 537.61 442.27Z" fill="#D417B6"/>
<path opacity="0.1" d="M508.85 417.96C506.42 429.22 498.79 450.31 471.29 450.86C441.99 451.44 440.29 422.3 440.48 414.03C440.921 413.819 441.334 413.553 441.71 413.24C443.89 411.07 443.45 413.89 443.45 413.89C443.45 413.89 439.76 447.16 473.45 444.77C507.14 442.38 503 416.07 503 416.07C503 415.91 505.51 416.78 508.85 417.96Z" fill="black"/>
<path d="M419.58 364.99C420.966 364.643 422.425 364.72 423.767 365.21C425.109 365.701 426.273 366.582 427.11 367.74C428.63 369.87 428.86 372.44 429.05 374.9C430.86 375.28 431.88 373.23 432.05 371.68C432.72 365.37 432.77 358.94 434.89 352.84C437.01 346.74 441.64 340.84 448.75 338.51C451.18 337.668 453.775 337.421 456.32 337.79C457.83 338.04 459.25 338.57 460.75 338.79C465.95 339.65 471.6 337.19 476.47 338.9C479.53 339.98 481.47 342.47 482.9 344.96C483.522 346.303 484.367 347.53 485.4 348.59C487.47 350.45 490.71 350.93 493.68 351.51C496.65 352.09 499.89 353.1 501.16 355.39C502.3 357.46 501.46 359.85 501.08 362.09C500.492 365.638 501.086 369.282 502.77 372.46C503.32 373.46 504.44 374.67 505.77 374.34C506.366 374.139 506.869 373.731 507.19 373.19C510.6 368.41 510.51 362.19 514.79 357.88C516.22 356.44 518.07 355.32 519.46 353.88C520.512 352.813 521.284 351.502 521.706 350.064C522.128 348.626 522.188 347.106 521.88 345.64C521.11 342.34 518.47 339.64 516.34 336.74C513.574 333.066 511.559 328.883 510.41 324.43C510.21 323.912 510.21 323.338 510.41 322.82C510.814 322.295 511.334 321.87 511.93 321.58C513.089 320.803 513.926 319.63 514.283 318.281C514.64 316.932 514.493 315.499 513.87 314.25C512.66 311.78 510 309.9 507 308.78C503.957 307.78 500.816 307.11 497.63 306.78C495.53 307.08 493.07 305.89 492.42 304.21C492.13 303.46 492.13 302.65 491.84 301.9C491.447 301.147 490.878 300.499 490.182 300.012C489.486 299.525 488.682 299.212 487.84 299.1C486.051 298.811 484.22 298.941 482.49 299.48C480.49 300.04 478.22 300.88 476.49 299.9C475.58 299.39 475.08 298.46 474.1 298.04C472.1 297.2 470.04 298.9 468.61 300.3C467.232 301.769 465.54 302.907 463.66 303.63C462.667 304.008 461.605 304.167 460.545 304.096C459.485 304.026 458.453 303.727 457.52 303.22C456.15 302.35 455.46 300.95 454.37 299.84C452.311 298.004 449.677 296.943 446.92 296.84C444.085 296.69 441.245 297 438.51 297.76C433.29 299.032 428.304 301.125 423.74 303.96C421.444 305.222 419.496 307.032 418.07 309.23C417.226 310.915 416.791 312.775 416.8 314.66C416.58 320.57 418.54 326.79 423.65 330.93C420.53 332.23 419.48 335.42 418.75 338.25C417.58 342.77 416.41 347.36 416.85 351.96C417.07 354.34 417.72 356.72 417.37 359.09C417.089 360.206 416.935 361.35 416.91 362.5C417.057 363.133 417.39 363.709 417.865 364.152C418.341 364.596 418.938 364.887 419.58 364.99Z" fill="#454B69"/>
<path opacity="0.1" d="M521.23 343.78C520.781 344.76 520.173 345.659 519.43 346.44C518.04 347.9 516.19 349.03 514.76 350.44C510.48 354.72 510.57 360.98 507.16 365.76C506.842 366.301 506.337 366.706 505.74 366.9C504.44 367.24 503.32 366.06 502.74 365.02C502.079 363.754 501.579 362.41 501.25 361.02L501.05 362.02C500.462 365.568 501.056 369.212 502.74 372.39C503.29 373.39 504.41 374.6 505.74 374.27C506.336 374.069 506.839 373.661 507.16 373.12C510.57 368.34 510.48 362.12 514.76 357.81C516.19 356.37 518.04 355.25 519.43 353.81C520.482 352.743 521.254 351.432 521.676 349.994C522.098 348.556 522.158 347.037 521.85 345.57C521.696 344.956 521.489 344.357 521.23 343.78ZM511.91 314.18C511.312 314.467 510.791 314.892 510.39 315.42C510.19 315.935 510.19 316.505 510.39 317.02C510.785 318.574 511.289 320.098 511.9 321.58C513.059 320.803 513.896 319.63 514.253 318.281C514.61 316.932 514.463 315.499 513.84 314.25C513.645 313.838 513.411 313.446 513.14 313.08C512.785 313.504 512.371 313.874 511.91 314.18ZM423.71 323.45C420.167 320.531 417.833 316.401 417.16 311.86C416.981 312.756 416.88 313.666 416.86 314.58C416.631 318.946 417.782 323.274 420.15 326.95C420.866 325.385 422.134 324.139 423.71 323.45ZM501.08 354.72C501.46 352.47 502.3 350.08 501.16 348.02C499.89 345.72 496.65 344.72 493.68 344.14C490.71 343.56 487.47 343.07 485.4 341.22C484.367 340.16 483.522 338.933 482.9 337.59C481.49 335.1 479.53 332.59 476.47 331.53C471.6 329.82 465.95 332.27 460.75 331.42C459.25 331.17 457.83 330.65 456.32 330.42C453.776 330.048 451.179 330.295 448.75 331.14C441.64 333.48 437.01 339.38 434.89 345.47C432.77 351.56 432.72 357.99 432.05 364.31C431.88 365.85 430.86 367.91 429.05 367.53C428.86 365.06 428.63 362.53 427.11 360.36C426.272 359.203 425.107 358.324 423.765 357.836C422.423 357.348 420.965 357.272 419.58 357.62C418.74 357.432 417.993 356.954 417.47 356.27C417.58 357.187 417.58 358.113 417.47 359.03C417.189 360.146 417.035 361.29 417.01 362.44C417.139 363.08 417.456 363.667 417.921 364.125C418.387 364.583 418.978 364.891 419.62 365.01C421.006 364.664 422.465 364.74 423.807 365.23C425.149 365.721 426.313 366.602 427.15 367.76C428.67 369.89 428.9 372.46 429.09 374.92C430.9 375.3 431.92 373.25 432.09 371.7C432.76 365.39 432.81 358.96 434.93 352.86C437.05 346.76 441.68 340.86 448.79 338.53C451.22 337.688 453.815 337.441 456.36 337.81C457.87 338.06 459.29 338.59 460.79 338.81C465.99 339.67 471.64 337.21 476.51 338.92C479.57 340 481.51 342.49 482.94 344.98C483.562 346.323 484.407 347.55 485.44 348.61C487.51 350.47 490.75 350.95 493.72 351.53C496.69 352.11 499.72 353.05 501.05 355.17C501 355.02 501.05 354.87 501.08 354.72ZM417.43 351.61C417.595 349.747 417.484 347.87 417.1 346.04C416.807 347.972 416.743 349.933 416.91 351.88C416.91 352.38 417.02 352.88 417.09 353.37C417.2 352.78 417.35 352.2 417.43 351.61Z" fill="black"/>
<path d="M368.49 511V492.95C368.49 492.815 368.544 492.685 368.639 492.589C368.735 492.494 368.865 492.44 369 492.44H371.05C371.185 492.44 371.315 492.494 371.411 492.589C371.506 492.685 371.56 492.815 371.56 492.95V500.46L379.88 492.75C380.076 492.587 380.313 492.482 380.565 492.447C380.818 492.413 381.075 492.45 381.307 492.554C381.54 492.658 381.738 492.825 381.88 493.037C382.022 493.248 382.102 493.495 382.11 493.75V510.1C382.102 510.355 382.022 510.602 381.88 510.813C381.738 511.025 381.54 511.192 381.307 511.296C381.075 511.4 380.818 511.437 380.565 511.403C380.313 511.368 380.076 511.263 379.88 511.1L371.56 503.44V510.91C371.56 511.045 371.506 511.175 371.411 511.271C371.315 511.366 371.185 511.42 371.05 511.42H369C368.879 511.422 368.761 511.381 368.668 511.304C368.574 511.227 368.511 511.119 368.49 511ZM569.52 492.95V511C569.52 511.068 569.506 511.135 569.48 511.197C569.454 511.26 569.416 511.317 569.367 511.364C569.319 511.412 569.261 511.449 569.198 511.474C569.135 511.499 569.068 511.511 569 511.51H567C566.865 511.51 566.735 511.456 566.639 511.361C566.544 511.265 566.49 511.135 566.49 511V503.49L558.17 511.19C557.973 511.352 557.735 511.456 557.483 511.49C557.23 511.524 556.973 511.488 556.74 511.384C556.508 511.28 556.308 511.113 556.165 510.902C556.022 510.691 555.941 510.445 555.93 510.19V493.78C555.941 493.525 556.022 493.279 556.165 493.068C556.308 492.857 556.508 492.69 556.74 492.586C556.973 492.482 557.23 492.445 557.483 492.48C557.735 492.514 557.973 492.618 558.17 492.78L566.49 500.44V492.98C566.49 492.845 566.544 492.715 566.639 492.619C566.735 492.524 566.865 492.47 567 492.47H569C569.132 492.467 569.26 492.516 569.357 492.605C569.454 492.695 569.512 492.818 569.52 492.95ZM465.61 511.78H461.54C461.01 511.78 460.501 511.569 460.126 511.194C459.751 510.819 459.54 510.31 459.54 509.78V494.84C459.54 494.31 459.751 493.801 460.126 493.426C460.501 493.051 461.01 492.84 461.54 492.84H465.61C466.14 492.84 466.649 493.051 467.024 493.426C467.399 493.801 467.61 494.31 467.61 494.84V509.78C467.61 510.31 467.399 510.819 467.024 511.194C466.649 511.569 466.14 511.78 465.61 511.78ZM478.51 509.78V494.84C478.51 494.31 478.299 493.801 477.924 493.426C477.549 493.051 477.04 492.84 476.51 492.84H472.4C471.87 492.84 471.361 493.051 470.986 493.426C470.611 493.801 470.4 494.31 470.4 494.84V509.78C470.4 510.31 470.611 510.819 470.986 511.194C471.361 511.569 471.87 511.78 472.4 511.78H476.47C476.736 511.785 477 511.738 477.248 511.639C477.495 511.541 477.72 511.395 477.91 511.209C478.1 511.022 478.251 510.8 478.354 510.555C478.457 510.309 478.51 510.046 478.51 509.78Z" fill="#444053"/>
<path opacity="0.6" d="M349 468.62H589V471.29H349V468.62Z" fill="#444053"/>
<path d="M423.11 476.28C426.606 476.28 429.44 473.446 429.44 469.95C429.44 466.454 426.606 463.62 423.11 463.62C419.614 463.62 416.78 466.454 416.78 469.95C416.78 473.446 419.614 476.28 423.11 476.28Z" fill="#444053"/>
<path d="M349 468.62H423.11V471.29H349V468.62Z" fill="#444053"/>
<path d="M957.08 769.98C989.924 769.98 1016.55 764.858 1016.55 758.54C1016.55 752.222 989.924 747.1 957.08 747.1C924.236 747.1 897.61 752.222 897.61 758.54C897.61 764.858 924.236 769.98 957.08 769.98Z" fill="#D417B6"/>
<path d="M956.09 762.74C959.912 762.74 963.01 758.684 963.01 753.68C963.01 748.676 959.912 744.62 956.09 744.62C952.268 744.62 949.17 748.676 949.17 753.68C949.17 758.684 952.268 762.74 956.09 762.74Z" fill="#3F3D56"/>
<path d="M956.09 751.66C959.912 751.66 963.01 747.604 963.01 742.6C963.01 737.596 959.912 733.54 956.09 733.54C952.268 733.54 949.17 737.596 949.17 742.6C949.17 747.604 952.268 751.66 956.09 751.66Z" fill="#3F3D56"/>
<path d="M956.09 740.59C959.912 740.59 963.01 736.534 963.01 731.53C963.01 726.526 959.912 722.47 956.09 722.47C952.268 722.47 949.17 726.526 949.17 731.53C949.17 736.534 952.268 740.59 956.09 740.59Z" fill="#3F3D56"/>
<path d="M956.09 729.51C959.912 729.51 963.01 725.454 963.01 720.45C963.01 715.446 959.912 711.39 956.09 711.39C952.268 711.39 949.17 715.446 949.17 720.45C949.17 725.454 952.268 729.51 956.09 729.51Z" fill="#3F3D56"/>
<path d="M956.09 718.43C959.912 718.43 963.01 714.374 963.01 709.37C963.01 704.366 959.912 700.31 956.09 700.31C952.268 700.31 949.17 704.366 949.17 709.37C949.17 714.374 952.268 718.43 956.09 718.43Z" fill="#3F3D56"/>
<path d="M956.09 707.35C959.912 707.35 963.01 703.294 963.01 698.29C963.01 693.286 959.912 689.23 956.09 689.23C952.268 689.23 949.17 693.286 949.17 698.29C949.17 703.294 952.268 707.35 956.09 707.35Z" fill="#3F3D56"/>
<path d="M956.09 696.27C959.912 696.27 963.01 692.214 963.01 687.21C963.01 682.206 959.912 678.15 956.09 678.15C952.268 678.15 949.17 682.206 949.17 687.21C949.17 692.214 952.268 696.27 956.09 696.27Z" fill="#3F3D56"/>
<path d="M982 611.41C982.944 610.202 983.806 608.933 984.58 607.61L966.38 604.61L986.06 604.76C987.944 600.652 988.972 596.203 989.081 591.685C989.189 587.167 988.375 582.674 986.69 578.48L960.31 592.18L984.65 574.29C982.37 570.347 979.302 566.917 975.637 564.211C971.973 561.506 967.791 559.585 963.351 558.567C958.912 557.549 954.31 557.456 949.833 558.294C945.357 559.132 941.1 560.883 937.33 563.438C933.559 565.993 930.355 569.297 927.918 573.144C925.48 576.992 923.861 581.3 923.161 585.801C922.461 590.301 922.695 594.898 923.85 599.304C925.004 603.71 927.053 607.831 929.87 611.41C928.403 613.272 927.136 615.283 926.09 617.41L949.71 629.68L924.53 621.23C922.762 626.455 922.325 632.039 923.257 637.476C924.189 642.913 926.462 648.032 929.87 652.37C926.025 657.262 923.633 663.137 922.969 669.323C922.305 675.51 923.395 681.758 926.114 687.355C928.834 692.951 933.073 697.67 938.347 700.971C943.621 704.272 949.718 706.022 955.94 706.022C962.162 706.022 968.259 704.272 973.533 700.971C978.807 697.67 983.046 692.951 985.765 687.355C988.485 681.758 989.575 675.51 988.911 669.323C988.246 663.137 985.855 657.262 982.01 652.37C986.603 646.524 989.1 639.305 989.1 631.87C989.1 624.435 986.603 617.216 982.01 611.37L982 611.41Z" fill="#D417B6"/>
<path opacity="0.1" d="M922.78 631.91C922.766 639.347 925.264 646.571 929.87 652.41C926.025 657.302 923.634 663.177 922.969 669.363C922.305 675.55 923.395 681.798 926.115 687.395C928.834 692.991 933.073 697.71 938.347 701.011C943.621 704.312 949.718 706.062 955.94 706.062C962.162 706.062 968.259 704.312 973.533 701.011C978.807 697.71 983.046 692.991 985.766 687.395C988.485 681.798 989.575 675.55 988.911 669.363C988.247 663.177 985.855 657.302 982.01 652.41C986.45 646.78 922.78 628.19 922.78 631.91Z" fill="black"/>
<path opacity="0.1" d="M290 831.56C344.676 831.56 389 822.158 389 810.56C389 798.962 344.676 789.56 290 789.56C235.324 789.56 191 798.962 191 810.56C191 822.158 235.324 831.56 290 831.56Z" fill="#D417B6"/>
<path d="M323.15 808.12C321.15 807.39 319.01 807.51 316.92 807.28C312.58 806.778 308.54 804.818 305.46 801.72C303.479 799.717 301.922 797.337 300.88 794.72C301.54 794.96 302.2 795.21 302.88 795.48C300.88 790.81 302.98 785.57 304.82 780.85C307.94 772.85 310.89 764.807 313.67 756.72C320.67 736.23 326.67 714.92 326.54 693.12C326.54 685.24 325.09 677.79 324.81 669.92C324.6 664.08 325.5 658.25 325.46 652.4C325.46 651.58 325.46 650.77 325.4 649.95C327.189 648.384 328.594 646.428 329.508 644.233C330.422 642.038 330.819 639.663 330.67 637.29C330.568 636.054 330.391 634.825 330.14 633.61C329.786 631.5 329.319 629.41 328.74 627.35C328.08 625.18 327.18 623.1 326.41 620.98C324.92 616.87 323.91 612.59 322.64 608.41C323.111 608.458 323.57 608.583 324 608.78C323.68 608.404 323.46 607.954 323.36 607.47C322.613 604.809 322.21 602.063 322.16 599.3L323.01 598.92C323.393 596.222 323.254 593.476 322.6 590.83C323.08 586.54 323.83 582.22 324.29 577.95C324.46 576.35 324.39 574.34 322.92 573.95C322.62 571.66 322.5 569.34 322.38 567.03C321.96 558.97 321.543 550.913 321.13 542.86C320.71 534.77 320.29 526.69 320.13 518.59C320.02 513.45 319.96 508.13 318.74 503.21C318.951 500.853 318.71 498.477 318.03 496.21C316.17 490.32 310.39 485.65 304.53 485.98C302.782 483.479 300.621 481.295 298.14 479.52C299.31 476.9 300.71 474.2 301.86 472.08C311.24 469.03 318.1 459.78 318.1 448.78C318.114 444.753 317.171 440.781 315.35 437.19C315.522 436.749 315.669 436.298 315.79 435.84C316.292 433.68 316.135 431.42 315.34 429.35C315.059 428.555 314.724 427.78 314.34 427.03C314.08 426.53 313.8 426.03 313.51 425.55L313 424.78C312.69 424.31 312.37 423.86 312 423.42C311.29 422.466 310.529 421.552 309.72 420.68C308.724 419.602 307.626 418.624 306.44 417.76C304.832 416.565 302.993 415.717 301.04 415.27C299.911 415.047 298.761 414.943 297.61 414.96C296.92 414.96 296.22 414.96 295.53 415.02C294.13 415.1 292.74 415.2 291.35 415.19C290.89 415.19 290.42 415.19 289.96 415.12C287.513 414.794 285.093 414.289 282.72 413.61L281.52 413.36C281.11 413.28 280.71 413.21 280.3 413.16C279.203 413.013 278.097 412.947 276.99 412.96H275.88C274.771 413.013 273.666 413.127 272.57 413.3L271.47 413.47C268.692 413.905 265.985 414.709 263.42 415.86C263.09 416.01 262.75 416.18 262.42 416.36L262.22 416.47C261.95 416.61 261.68 416.76 261.42 416.92L261.27 417.01L260.42 417.55L260.35 417.6C252.41 422.94 247.72 433.06 246.53 443.1C245.2 454.37 247.53 465.73 249.86 476.82L251.96 486.82C252.05 487.27 252.15 487.71 252.24 488.16C249.287 490.583 247.016 493.733 245.65 497.3C243.65 502.3 243.6 507.71 243.76 513.13C243.76 514.23 243.82 515.33 243.93 516.43C243.68 518.51 243.46 520.6 243.32 522.7C242.69 532.4 243.87 542.15 243.56 551.87C243.32 559.36 242.19 566.87 242.74 574.31C243.22 580.91 244.99 587.31 246.74 593.68L249.26 602.76C249.342 603.23 249.561 603.665 249.89 604.01C250.304 604.288 250.81 604.392 251.3 604.3C249.661 608.024 248.291 611.86 247.2 615.78C246.447 618.181 245.95 620.655 245.72 623.16C245.39 627.74 246.45 632.29 247.51 636.74C249.11 643.407 250.703 650.1 252.29 656.82C253.41 661.52 254.527 666.217 255.64 670.91C257.84 680.17 260.05 689.49 260.46 699.02C260.689 703.806 260.353 708.602 259.46 713.31C256.575 727.408 256.155 741.899 258.22 756.14C259.889 768.155 262.596 780.002 266.31 791.55C267.12 791.12 267.94 790.72 268.78 790.35L268.43 791C267.277 793 266.21 795.05 265.23 797.15C264.569 798.515 263.998 799.921 263.52 801.36C262.24 805.36 262.04 809.62 261.86 813.83C261.768 814.639 261.84 815.459 262.07 816.24C262.62 817.75 264.2 818.52 265.67 818.94C269.99 820.17 274.48 819.73 278.97 819.15C278.991 819.249 279.021 819.346 279.06 819.44C279.61 820.95 281.18 821.72 282.66 822.14C288.84 823.9 295.36 822.24 301.73 821.64C308.1 821.04 314.36 821.48 320.49 820.01C321.404 819.815 322.281 819.477 323.09 819.01C324.666 817.908 325.822 816.304 326.37 814.46C326.562 813.982 326.69 813.481 326.75 812.97C327 810.78 325.13 808.85 323.15 808.12ZM302 715.51C301.655 717.853 300.982 720.135 300 722.29C295.19 732.519 291.74 743.335 289.74 754.46C288.428 761.809 287.669 769.247 287.47 776.71C287.37 782.21 287.58 787.97 285.29 792.91L286.12 792.78C285.86 793.26 285.61 793.78 285.37 794.16L285.25 794.38C283.865 792.022 282.939 789.423 282.52 786.72C282.52 786.63 282.07 786.56 281.38 786.52C278.553 770.724 277.573 754.653 278.46 738.63C278.474 736.687 278.742 734.753 279.26 732.88C279.77 731.27 280.63 729.8 281.26 728.24C282.259 725.619 282.931 722.885 283.26 720.1C284.349 712.982 284.771 705.777 284.52 698.58C284.28 691.79 285.85 685.04 287.19 678.28C287.83 675.07 288.42 671.85 288.74 668.63L288.8 667.98C294.75 677.795 298.908 688.59 301.08 699.86C302.288 704.984 302.599 710.279 302 715.51ZM259.2 570.99L259.52 571.27C260.487 572.12 261.377 573.054 262.18 574.06C262.58 574.498 262.868 575.027 263.02 575.6C263.32 577.06 262.11 578.3 261.12 579.37C260.69 579.834 260.286 580.321 259.91 580.83C259.697 577.55 259.47 574.27 259.23 570.99H259.2Z" fill="url(#paint0_linear_66_835)"/>
<path d="M245.36 508.31L244.26 516.8C243.89 519.68 243.52 522.55 243.32 525.44C242.65 535.06 243.89 544.72 243.57 554.36C243.31 561.78 242.13 569.19 242.7 576.6C243.21 583.14 245.07 589.5 246.93 595.8L249.57 604.8C249.66 605.27 249.89 605.702 250.23 606.04C250.739 606.341 251.343 606.438 251.92 606.31L263.64 605.25C262.89 601.81 262.06 598.25 261.64 594.72C261.32 591.96 261.13 589.18 260.93 586.4C260.31 577.74 259.6 569.08 258.93 560.4L257.68 545.2C257.15 538.6 256.6 531.97 254.94 525.56C253.274 519.085 249.976 513.146 245.36 508.31Z" fill="#D417B6"/>
<path opacity="0.1" d="M245.36 508.31L244.26 516.8C243.89 519.68 243.52 522.55 243.32 525.44C242.65 535.06 243.89 544.72 243.57 554.36C243.31 561.78 242.13 569.19 242.7 576.6C243.21 583.14 245.07 589.5 246.93 595.8L249.57 604.8C249.66 605.27 249.89 605.702 250.23 606.04C250.739 606.341 251.343 606.438 251.92 606.31L263.64 605.25C262.89 601.81 262.06 598.25 261.64 594.72C261.32 591.96 261.13 589.18 260.93 586.4C260.31 577.74 259.6 569.08 258.93 560.4L257.68 545.2C257.15 538.6 256.6 531.97 254.94 525.56C253.274 519.085 249.976 513.146 245.36 508.31Z" fill="black"/>
<path d="M266.24 797.33C265.552 798.684 264.951 800.08 264.44 801.51C263.1 805.46 262.9 809.7 262.7 813.87C262.612 814.673 262.686 815.486 262.92 816.26C263.5 817.76 265.16 818.52 266.71 818.93C273.2 820.68 280.04 819.04 286.71 818.44C293.38 817.84 299.97 818.28 306.41 816.83C307.361 816.646 308.281 816.326 309.14 815.88C310.771 814.819 311.988 813.23 312.59 811.38C312.784 810.906 312.915 810.408 312.98 809.9C313.19 807.7 311.28 805.8 309.2 805.08C307.12 804.36 304.85 804.47 302.66 804.25C298.15 803.789 293.917 801.852 290.62 798.74C287.322 795.629 285.143 791.516 284.42 787.04C284.34 786.56 273.58 786.85 272.42 787.47C271.1 788.2 270.3 790.01 269.55 791.24C268.37 793.22 267.267 795.25 266.24 797.33Z" fill="#A26565"/>
<path opacity="0.1" d="M266.24 797.33C265.552 798.684 264.951 800.08 264.44 801.51C263.1 805.46 262.9 809.7 262.7 813.87C262.612 814.673 262.686 815.486 262.92 816.26C263.5 817.76 265.16 818.52 266.71 818.93C273.2 820.68 280.04 819.04 286.71 818.44C293.38 817.84 299.97 818.28 306.41 816.83C307.361 816.646 308.281 816.326 309.14 815.88C310.771 814.819 311.988 813.23 312.59 811.38C312.784 810.906 312.915 810.408 312.98 809.9C313.19 807.7 311.28 805.8 309.2 805.08C307.12 804.36 304.85 804.47 302.66 804.25C298.15 803.789 293.917 801.852 290.62 798.74C287.322 795.629 285.143 791.516 284.42 787.04C284.34 786.56 273.58 786.85 272.42 787.47C271.1 788.2 270.3 790.01 269.55 791.24C268.37 793.22 267.267 795.25 266.24 797.33Z" fill="black"/>
<path d="M284.09 800.51C283.398 801.858 282.796 803.251 282.29 804.68C280.94 808.68 280.74 812.87 280.55 817.04C280.457 817.843 280.532 818.657 280.77 819.43C281.34 820.93 283 821.69 284.55 822.11C291.04 823.85 297.89 822.21 304.55 821.61C311.21 821.01 317.82 821.45 324.25 820C325.205 819.807 326.126 819.47 326.98 819C328.613 817.941 329.831 816.352 330.43 814.5C330.624 814.026 330.755 813.528 330.82 813.02C331.03 810.83 329.12 808.92 327.04 808.2C324.96 807.48 322.69 807.6 320.5 807.37C315.992 806.907 311.761 804.972 308.464 801.862C305.167 798.753 302.986 794.643 302.26 790.17C302.18 789.69 291.42 789.97 290.26 790.59C288.93 791.32 288.13 793.13 287.38 794.36C286.24 796.39 285.12 798.43 284.09 800.51Z" fill="#A26565"/>
<path d="M330.62 694.28C330.76 715.89 324.48 737.01 317.11 757.28C314.19 765.32 311.093 773.29 307.82 781.19C305.88 785.87 303.69 791.07 305.77 795.69C299.77 793.41 293.67 792.07 287.36 793.12C289.76 788.22 289.53 782.52 289.64 777.12C289.844 769.719 290.633 762.346 292 755.07C294.118 743.996 297.749 733.265 302.79 723.18C303.809 721.053 304.513 718.79 304.88 716.46C305.7 711.32 305.06 706.04 303.99 700.95C301.688 689.707 297.314 678.992 291.09 669.35L291.03 669.99C290.656 673.206 290.116 676.4 289.41 679.56C288 686.25 286.35 692.95 286.6 699.68C286.861 706.816 286.419 713.961 285.28 721.01C284.913 723.778 284.191 726.487 283.13 729.07C282.44 730.62 281.54 732.07 281 733.68C280.459 735.532 280.177 737.45 280.16 739.38C279.36 755.65 280.16 772.17 283.48 788.12C277.91 787.68 272.34 789.29 267.36 791.79C263.466 780.373 260.621 768.624 258.86 756.69C256.69 742.576 257.131 728.184 260.16 714.23C261.104 709.576 261.457 704.822 261.21 700.08C260.78 690.63 258.46 681.39 256.15 672.21L252.63 658.21C250.963 651.543 249.297 644.907 247.63 638.3C246.52 633.89 245.4 629.38 245.75 624.84C245.994 622.349 246.517 619.894 247.31 617.52C249.807 609.446 253.541 601.809 258.38 594.88C277.65 595.96 297.15 594.16 316.38 592.68C317.312 592.496 318.28 592.66 319.1 593.14C319.755 593.806 320.146 594.687 320.2 595.62L327.43 636.62C328.601 642.318 329.286 648.106 329.48 653.92C329.48 659.72 328.58 665.5 328.8 671.29C329.1 679.09 330.58 686.47 330.62 694.28Z" fill="#454B69"/>
<path opacity="0.1" d="M291.05 669.99C290.676 673.206 290.136 676.4 289.43 679.56C285.24 672.31 280.72 665.24 276.86 657.81C275.86 655.9 274.92 653.96 273.97 652.02L271.12 646.22C270.59 645.13 270.06 644.04 269.58 642.93C268.798 641.335 268.198 639.658 267.79 637.93C269.19 637.67 272.65 641.45 273.69 642.44C275.811 644.541 277.814 646.757 279.69 649.08C281.968 651.662 284.06 654.402 285.95 657.28C288.37 661.191 290.096 665.491 291.05 669.99Z" fill="black"/>
<path d="M307.1 471.08C307.1 471.08 296.4 488.13 298.38 491.7C300.36 495.27 264.68 488.53 264.68 488.53C264.68 488.53 284.11 471.48 282.12 464.34C280.13 457.2 307.1 471.08 307.1 471.08Z" fill="#EFB7B9"/>
<path d="M297.59 476.24C310.95 476.24 321.78 465.41 321.78 452.05C321.78 438.69 310.95 427.86 297.59 427.86C284.23 427.86 273.4 438.69 273.4 452.05C273.4 465.41 284.23 476.24 297.59 476.24Z" fill="#EFB7B9"/>
<path d="M307.46 488.96C304.87 485.366 301.356 482.539 297.29 480.78C294.947 479.941 292.525 479.344 290.06 479L280.41 477.3C278.05 476.88 275.52 476.49 273.32 477.46C272.208 478.03 271.195 478.777 270.32 479.67C266.97 482.78 263.72 486.19 259.51 487.99C258.36 488.48 257.16 488.84 256.01 489.33C251.3 491.33 247.78 495.59 245.79 500.33C243.69 505.27 243.63 510.64 243.79 516.01C243.787 517.864 243.972 519.713 244.34 521.53C244.821 523.26 245.433 524.952 246.17 526.59C247.5 530.096 248.615 533.679 249.51 537.32C252.01 546.887 254.09 556.553 255.75 566.32C255.891 567.719 256.302 569.077 256.96 570.32C257.892 571.564 259.02 572.648 260.3 573.53C261.315 574.363 262.249 575.291 263.09 576.3C263.509 576.712 263.821 577.22 264 577.78C264.31 579.22 263 580.46 262 581.51C259.848 583.706 258.292 586.415 257.48 589.38C256.978 589.989 256.722 590.762 256.76 591.55C256.968 592.098 257.047 592.687 256.99 593.27C256.793 593.801 256.483 594.282 256.08 594.68C255.619 595.281 255.291 595.974 255.118 596.712C254.946 597.45 254.933 598.216 255.08 598.96C262.576 602.217 270.598 604.094 278.76 604.5C280.76 604.6 282.76 604.6 284.76 604.84C286.18 605.02 287.58 605.31 289 605.48C291.061 605.673 293.132 605.727 295.2 605.64C305.97 605.42 317.05 605.15 326.94 600.88C327.87 595.81 325.86 590.64 324.6 585.64C322.6 577.64 322.1 569.45 320.6 561.38C319.6 555.87 318.1 550.44 317.25 544.89C316.4 539.34 316.25 533.59 317.73 528.19C319.08 523.41 319.49 518.53 320.89 513.76C322.29 508.99 323.27 503.82 321.69 499.1C319.69 493.26 313.62 488.63 307.46 488.96Z" fill="#D417B6"/>
<path d="M319.34 439.22C320.52 434.93 318.2 430.46 315.44 426.97C312.44 423.22 308.62 419.84 303.93 418.9C300.12 418.13 296.17 419.06 292.29 418.75C288.86 418.48 285.56 417.24 282.15 416.75C279.056 416.417 275.93 416.534 272.87 417.1C269.966 417.532 267.127 418.325 264.42 419.46C254.12 424.03 248.09 435.29 246.69 446.46C245.29 457.63 247.74 468.89 250.18 479.88L252.39 489.82C254.69 500.17 256.99 510.56 257.6 521.14C258.21 531.72 257.07 542.58 252.72 552.24C266.788 544.683 277.688 532.343 283.45 517.45C285.01 513.36 286.17 509.11 287.91 505.09C289.4 501.63 291.31 498.35 292.63 494.82C294.122 490.836 294.838 486.603 294.74 482.35C294.66 479.15 294.13 475.97 294.22 472.77C294.31 469.57 295.13 466.24 297.34 463.92C299.34 461.87 302.09 460.92 304.62 459.59C308.603 457.544 312.083 454.641 314.81 451.09C316.4 449.01 316.49 448.09 316.89 445.73C317.29 443.37 318.72 441.49 319.34 439.22Z" fill="#A26565"/>
<path d="M319.37 620.93C319.62 623.42 319.17 625.93 319.71 628.4C320.12 630.24 321.07 631.9 321.63 633.7C322.184 635.778 322.47 637.919 322.48 640.07C322.56 641.87 322.42 644.07 320.82 644.91C320.12 645.28 319.28 645.28 318.55 645.6C317.82 645.92 317.2 646.79 317.62 647.47C318.04 648.15 318.76 648.04 319.42 648.17C320.08 648.3 320.79 648.98 320.42 649.53C320.269 649.71 320.067 649.839 319.84 649.9C319.172 650.106 318.539 650.409 317.96 650.8C317.677 651.006 317.456 651.285 317.32 651.608C317.184 651.93 317.139 652.284 317.19 652.63C317.23 652.796 317.308 652.95 317.416 653.081C317.524 653.213 317.661 653.318 317.816 653.389C317.971 653.461 318.14 653.496 318.31 653.492C318.481 653.489 318.648 653.447 318.8 653.37C318.507 653.997 318.347 654.678 318.33 655.37C320.89 656.47 323.76 655.03 326.16 653.64C327.198 653.061 328.2 652.42 329.16 651.72C331.101 650.229 332.649 648.286 333.667 646.061C334.685 643.835 335.142 641.393 335 638.95C334.886 637.723 334.695 636.504 334.43 635.3C334.061 633.203 333.57 631.13 332.96 629.09C332.27 626.94 331.33 624.89 330.52 622.78C328.8 618.29 327.69 613.59 326.13 609.04C326.026 608.568 325.761 608.147 325.38 607.85C325.036 607.68 324.652 607.608 324.27 607.64C322.519 607.548 320.764 607.71 319.06 608.12C318.06 608.42 316.35 609.12 315.88 610.12C315.41 611.12 316.16 611.96 316.61 612.79C318.047 615.299 318.985 618.064 319.37 620.93Z" fill="#EFB7B9"/>
<path opacity="0.1" d="M317.74 499.42C318.253 499.946 318.685 500.546 319.02 501.2C322.46 507.45 322.5 514.92 322.66 522.05C322.84 530.05 323.28 538.05 323.72 546.1L325.03 570.1C325.16 572.39 325.28 574.68 325.61 576.95C327.15 577.34 327.21 579.34 327.04 580.95C325.93 590.73 323.18 600.8 326.04 610.21C326.15 610.693 326.381 611.14 326.71 611.51C325.258 611.055 323.704 611.034 322.24 611.45C320.81 611.75 319.43 612.28 317.99 612.61C316.17 613.02 314.11 613.2 312.87 614.61C311.465 610.383 310.345 606.067 309.52 601.69C308.84 597.69 308.65 593.57 307.03 589.87C306.38 588.38 305.5 587 304.7 585.57C300.51 578.09 298.45 569.64 296.44 561.3C295.538 557.346 295.322 553.267 295.8 549.24C296.091 547.403 296.258 545.549 296.3 543.69C296.178 541.728 295.921 539.777 295.53 537.85C294.68 532.196 295.08 526.424 296.7 520.94C298.2 515.85 299.52 510.49 302.7 506.21C305.88 501.93 312.43 499.49 317.74 499.42Z" fill="black"/>
<path d="M318.93 498.62C319.444 499.149 319.875 499.753 320.21 500.41C323.65 506.65 323.69 514.13 323.85 521.26C324.03 529.26 324.47 537.26 324.91 545.26L326.22 569.26C326.35 571.55 326.47 573.84 326.8 576.11C328.34 576.5 328.4 578.5 328.22 580.11C327.12 589.89 324.37 599.95 327.22 609.37C327.33 609.853 327.561 610.3 327.89 610.67C326.438 610.215 324.884 610.194 323.42 610.61C321.99 610.91 320.61 611.44 319.17 611.76C317.35 612.18 315.29 612.35 314.05 613.76C312.649 609.514 311.54 605.177 310.73 600.78C310.05 596.78 309.86 592.67 308.24 588.97C307.536 587.498 306.759 586.063 305.91 584.67C301.71 577.19 299.66 568.73 297.65 560.39C296.748 556.436 296.531 552.357 297.01 548.33C297.763 544.56 297.671 540.67 296.74 536.94C295.89 531.289 296.29 525.52 297.91 520.04C299.41 514.95 300.73 509.59 303.91 505.31C307.09 501.03 313.62 498.7 318.93 498.62Z" fill="#D417B6"/>
<path opacity="0.1" d="M315.44 426.97C312.44 423.22 308.62 419.84 303.93 418.9C300.12 418.13 296.17 419.06 292.29 418.75C288.86 418.48 285.56 417.24 282.15 416.75C279.056 416.417 275.93 416.534 272.87 417.1C269.966 417.532 267.127 418.325 264.42 419.46C262.957 420.115 261.561 420.909 260.25 421.83C262.66 420.894 265.165 420.223 267.72 419.83C270.777 419.264 273.899 419.146 276.99 419.48C280.41 419.92 283.7 421.15 287.14 421.42C291.01 421.73 294.96 420.81 298.78 421.57C303.47 422.51 307.31 425.9 310.28 429.65C313.05 433.13 315.36 437.6 314.19 441.9C313.57 444.16 312.13 446.14 311.74 448.47C311.35 450.8 311.25 451.75 309.65 453.83C307.598 456.497 305.118 458.806 302.31 460.66C303.08 460.3 303.87 459.94 304.62 459.55C308.603 457.504 312.083 454.601 314.81 451.05C316.4 448.97 316.49 448.05 316.89 445.69C317.29 443.33 318.72 441.39 319.34 439.12C320.52 434.93 318.2 430.46 315.44 426.97ZM297.34 463.98C297.754 463.551 298.206 463.159 298.69 462.81C296.38 463.93 293.95 464.91 292.18 466.81C289.97 469.12 289.18 472.46 289.06 475.66C288.94 478.86 289.51 482.04 289.58 485.23C289.678 489.486 288.962 493.722 287.47 497.71C286.15 501.24 284.24 504.51 282.75 507.98C281.02 511.98 279.86 516.24 278.3 520.33C273.301 533.242 264.424 544.289 252.89 551.95C252.83 552.08 252.78 552.22 252.72 552.35C266.788 544.793 277.688 532.453 283.45 517.56C285.01 513.47 286.17 509.22 287.91 505.2C289.4 501.74 291.31 498.46 292.63 494.93C294.122 490.946 294.838 486.713 294.74 482.46C294.66 479.26 294.13 476.08 294.22 472.88C294.31 469.68 295.13 466.3 297.34 463.98Z" fill="black"/>
</g>
<defs>
<linearGradient id="paint0_linear_66_835" x1="286.68" y1="822.89" x2="286.68" y2="412.99" gradientUnits="userSpaceOnUse">
<stop stop-color="#808080" stop-opacity="0.25"/>
<stop offset="0.54" stop-color="#808080" stop-opacity="0.12"/>
<stop offset="1" stop-color="#808080" stop-opacity="0.1"/>
</linearGradient>
<clipPath id="clip0_66_835">
<rect width="1130" height="831.56" fill="white"/>
</clipPath>
</defs>
</svg>
