<svg width="1114" height="826" viewBox="0 0 1114 826" fill="none" xmlns="http://www.w3.org/2000/svg">
<g clip-path="url(#clip0_66_762)">
<path opacity="0.1" d="M490.9 31.17C446.82 13.25 400.25 -1.71002 352.71 0.169983C282.81 2.91998 215.77 44.97 182.86 106.7C154.97 159 151.53 220.3 139.52 278.34C124.7 349.86 96.36 417.8 66.08 484.26C49.82 519.96 32.66 556.43 30 595.57C26.29 649.89 52.26 704.03 93 740.17C133.74 776.31 187.82 795.38 242.11 799.54C271 801.75 301.19 799.7 326.86 786.25C354 772.03 373.8 746.32 401.05 732.3C426.31 719.3 455.86 717.47 484.22 719.17C521.363 721.4 557.962 729.179 592.8 742.25C632.44 757.14 669.3 778.69 708.85 793.79C748.4 808.89 792.59 817.3 833.02 804.71C870.96 792.88 901.02 764.15 928.02 735.05C972.448 687.275 1012.97 636.011 1049.19 581.75C1073.6 545.19 1096.32 506.61 1107.12 463.99C1127.75 382.51 1099.35 290.58 1036.36 234.99C984.2 188.86 914.16 168.86 845.6 156.68C783.08 145.61 710.79 144.92 653.24 116.06C598.36 88.54 548.42 54.57 490.9 31.17Z" fill="#D417B6"/>
<path d="M934.03 576.92L935.7 578.6L936.45 575.71L935.65 572.86H933.59L934.03 576.92Z" fill="#464A5F"/>
<path opacity="0.1" d="M934.03 576.92L935.7 578.6L936.45 575.71L935.65 572.86H933.59L934.03 576.92Z" fill="black"/>
<path d="M934.03 576.92L935.65 578.65L934.03 580.55L932.29 579.9L931.86 579.06L934.03 576.92Z" fill="#9C9CA1"/>
<path opacity="0.1" d="M934.03 576.92L935.65 578.65L934.03 580.55L932.29 579.9L931.86 579.06L934.03 576.92Z" fill="black"/>
<path d="M626.21 273.14L443.33 456.02C440.042 459.308 438.191 463.765 438.182 468.415C438.172 473.064 440.006 477.529 443.28 480.83L723.6 763.38C726.878 766.681 731.331 768.549 735.983 768.573C740.635 768.598 745.108 766.777 748.42 763.51L934.03 580.56L626.21 273.14Z" fill="#9C9CA1"/>
<path opacity="0.1" d="M626.21 273.14L443.33 456.02C440.042 459.308 438.191 463.765 438.182 468.415C438.172 473.064 440.006 477.529 443.28 480.83L723.6 763.38C726.878 766.681 731.331 768.549 735.983 768.573C740.635 768.598 745.108 766.777 748.42 763.51L934.03 580.56L626.21 273.14Z" fill="black"/>
<path d="M626.21 269.51L443.33 452.39C440.042 455.678 438.191 460.135 438.182 464.785C438.172 469.434 440.006 473.899 443.28 477.2L723.6 759.74C726.877 763.043 731.329 764.912 735.981 764.938C740.633 764.965 745.106 763.146 748.42 759.88L934.03 576.88L626.21 269.51Z" fill="#9C9CA1"/>
<path d="M645.41 140.96L628.63 268.3L936.45 575.71L954.13 446.27C954.53 443.374 954.246 440.425 953.301 437.659C952.357 434.893 950.777 432.386 948.69 430.34L651.69 138.78C651.195 138.3 650.577 137.966 649.904 137.817C649.231 137.667 648.529 137.708 647.878 137.934C647.226 138.16 646.651 138.563 646.215 139.097C645.779 139.631 645.5 140.276 645.41 140.96Z" fill="#464A5F"/>
<path opacity="0.1" d="M645.41 140.96L628.63 268.3L936.45 575.71L954.13 446.27C954.53 443.374 954.246 440.425 953.301 437.659C952.357 434.893 950.777 432.386 948.69 430.34L651.69 138.78C651.195 138.3 650.577 137.966 649.904 137.817C649.231 137.667 648.529 137.708 647.878 137.934C647.226 138.16 646.651 138.563 646.215 139.097C645.779 139.631 645.5 140.276 645.41 140.96Z" fill="black"/>
<path d="M642.99 142.17L626.21 269.51L934.03 576.92L951.71 447.48C952.11 444.584 951.826 441.635 950.881 438.869C949.937 436.103 948.357 433.596 946.27 431.55L649.27 139.99C648.775 139.51 648.157 139.176 647.484 139.027C646.811 138.877 646.109 138.918 645.458 139.144C644.806 139.37 644.231 139.773 643.795 140.307C643.359 140.841 643.08 141.486 642.99 142.17Z" fill="#464A5F"/>
<path opacity="0.1" d="M627.03 328.03L615.9 339.26C615.571 339.588 615.31 339.978 615.132 340.407C614.954 340.836 614.862 341.296 614.862 341.76C614.862 342.225 614.954 342.684 615.132 343.113C615.31 343.542 615.571 343.932 615.9 344.26L627.18 355.83C627.83 356.505 628.722 356.895 629.659 356.914C630.597 356.933 631.503 356.579 632.18 355.93L643.26 345.47C643.934 344.834 644.33 343.958 644.364 343.032C644.398 342.106 644.066 341.204 643.44 340.52L632.16 328.18C631.84 327.821 631.451 327.531 631.016 327.329C630.58 327.126 630.108 327.014 629.627 327C629.147 326.986 628.669 327.07 628.222 327.247C627.776 327.424 627.37 327.691 627.03 328.03ZM647.77 348.78L636.68 360C636.031 360.66 635.667 361.549 635.667 362.475C635.667 363.401 636.031 364.29 636.68 364.95L647.96 376.52C648.281 376.856 648.666 377.125 649.091 377.311C649.517 377.498 649.975 377.599 650.439 377.608C650.904 377.617 651.366 377.535 651.798 377.365C652.231 377.196 652.626 376.942 652.96 376.62L664.04 366.17C664.724 365.529 665.127 364.644 665.161 363.707C665.194 362.77 664.856 361.858 664.22 361.17L652.9 348.86C652.576 348.506 652.182 348.222 651.744 348.025C651.306 347.828 650.833 347.723 650.352 347.715C649.872 347.708 649.395 347.798 648.951 347.981C648.507 348.164 648.105 348.436 647.77 348.78ZM669.55 370.55L658.46 381.78C657.813 382.441 657.451 383.33 657.451 384.255C657.451 385.18 657.813 386.069 658.46 386.73L669.75 398.3C670.4 398.975 671.292 399.365 672.229 399.384C673.167 399.403 674.073 399.049 674.75 398.4L685.83 387.94C686.504 387.304 686.9 386.428 686.934 385.502C686.968 384.576 686.636 383.674 686.01 382.99L674.73 370.65C674.407 370.287 674.011 369.994 673.569 369.791C673.128 369.587 672.648 369.478 672.162 369.468C671.676 369.459 671.192 369.55 670.743 369.736C670.294 369.922 669.887 370.199 669.55 370.55ZM691.57 392.58L680.49 403.86C679.843 404.521 679.481 405.41 679.481 406.335C679.481 407.26 679.843 408.149 680.49 408.81L691.78 420.38C692.43 421.055 693.322 421.445 694.259 421.464C695.197 421.483 696.103 421.129 696.78 420.48L707.85 410.02C708.528 409.386 708.928 408.511 708.963 407.584C708.999 406.657 708.667 405.754 708.04 405.07L696.7 392.68C696.376 392.326 695.984 392.041 695.547 391.843C695.109 391.646 694.636 391.539 694.156 391.529C693.677 391.52 693.2 391.608 692.755 391.789C692.311 391.97 691.907 392.239 691.57 392.58ZM713.6 414.61L702.52 425.86C701.858 426.524 701.486 427.423 701.486 428.36C701.486 429.297 701.858 430.196 702.52 430.86L713.81 442.43C714.46 443.105 715.352 443.495 716.289 443.514C717.227 443.533 718.133 443.179 718.81 442.53L729.88 432.07C730.558 431.436 730.958 430.561 730.993 429.634C731.029 428.707 730.697 427.804 730.07 427.12L718.79 414.78C718.471 414.412 718.078 414.114 717.638 413.904C717.198 413.694 716.719 413.578 716.232 413.562C715.745 413.546 715.26 413.631 714.807 413.811C714.354 413.992 713.943 414.263 713.6 414.61ZM737.02 435.23L723.25 449.18C722.947 449.49 722.777 449.906 722.777 450.34C722.777 450.774 722.947 451.19 723.25 451.5L737.12 465.71C737.43 466.013 737.847 466.183 738.28 466.183C738.714 466.183 739.13 466.013 739.44 465.71L753.21 452.71C753.526 452.412 753.712 452.001 753.727 451.566C753.742 451.132 753.585 450.709 753.29 450.39L739.43 435.23C739.275 435.066 739.088 434.936 738.881 434.847C738.674 434.758 738.451 434.712 738.225 434.712C738 434.712 737.776 434.758 737.569 434.847C737.362 434.936 737.175 435.066 737.02 435.23ZM759.05 457.26L745.28 471.26C744.978 471.568 744.808 471.983 744.808 472.415C744.808 472.847 744.978 473.262 745.28 473.57L759.15 487.79C759.46 488.093 759.877 488.263 760.31 488.263C760.744 488.263 761.16 488.093 761.47 487.79L775.24 474.79C775.556 474.492 775.742 474.081 775.757 473.646C775.772 473.212 775.615 472.789 775.32 472.47L761.46 457.31C761.308 457.143 761.124 457.009 760.919 456.915C760.714 456.822 760.491 456.771 760.266 456.767C760.04 456.762 759.816 456.803 759.607 456.888C759.398 456.973 759.209 457.099 759.05 457.26ZM778.55 476.76L764.78 490.76C764.478 491.068 764.308 491.483 764.308 491.915C764.308 492.347 764.478 492.762 764.78 493.07L778.65 507.29C778.96 507.593 779.377 507.763 779.81 507.763C780.244 507.763 780.66 507.593 780.97 507.29L794.74 494.29C795.056 493.992 795.242 493.581 795.257 493.146C795.272 492.712 795.115 492.289 794.82 491.97L780.95 476.86C780.802 476.691 780.621 476.554 780.419 476.457C780.216 476.36 779.996 476.306 779.771 476.296C779.547 476.287 779.323 476.323 779.113 476.403C778.903 476.483 778.712 476.604 778.55 476.76ZM800.39 498.6L786.62 512.54C786.315 512.849 786.143 513.266 786.143 513.7C786.143 514.134 786.315 514.551 786.62 514.86L800.49 529.07C800.799 529.375 801.216 529.547 801.65 529.547C802.084 529.547 802.501 529.375 802.81 529.07L816.58 516.07C816.894 515.77 817.078 515.36 817.093 514.926C817.108 514.493 816.953 514.07 816.66 513.75L802.8 498.59C802.644 498.427 802.457 498.297 802.249 498.209C802.042 498.121 801.818 498.076 801.593 498.077C801.367 498.078 801.144 498.125 800.938 498.215C800.731 498.304 800.545 498.436 800.39 498.6ZM821.54 519.75L807.77 533.69C807.465 533.999 807.293 534.416 807.293 534.85C807.293 535.284 807.465 535.701 807.77 536.01L821.64 550.23C821.95 550.533 822.367 550.703 822.8 550.703C823.234 550.703 823.65 550.533 823.96 550.23L837.73 537.23C838.044 536.93 838.228 536.52 838.243 536.086C838.258 535.653 838.103 535.23 837.81 534.91L823.9 519.8C823.749 519.641 823.568 519.513 823.367 519.424C823.166 519.335 822.95 519.287 822.73 519.282C822.511 519.278 822.293 519.317 822.088 519.397C821.884 519.477 821.698 519.597 821.54 519.75ZM842.69 540.86L828.9 554.86C828.598 555.168 828.428 555.583 828.428 556.015C828.428 556.447 828.598 556.862 828.9 557.17L842.77 571.39C843.08 571.693 843.497 571.863 843.93 571.863C844.364 571.863 844.78 571.693 845.09 571.39L858.86 558.39C859.176 558.092 859.362 557.681 859.377 557.246C859.392 556.812 859.235 556.389 858.94 556.07L845.08 540.91C844.929 540.746 844.746 540.614 844.542 540.523C844.339 540.431 844.119 540.382 843.896 540.377C843.673 540.372 843.451 540.413 843.244 540.496C843.037 540.579 842.848 540.703 842.69 540.86ZM863.84 562.05L850.07 576C849.767 576.31 849.597 576.726 849.597 577.16C849.597 577.594 849.767 578.01 850.07 578.32L863.9 592.53C864.204 592.84 864.616 593.018 865.05 593.028C865.483 593.037 865.903 592.876 866.22 592.58L879.99 579.58C880.306 579.282 880.492 578.871 880.507 578.436C880.522 578.002 880.365 577.579 880.07 577.26L866.21 562.1C866.059 561.939 865.877 561.81 865.675 561.72C865.474 561.631 865.256 561.582 865.036 561.577C864.815 561.573 864.595 561.612 864.39 561.693C864.185 561.774 863.998 561.896 863.84 562.05ZM606.9 348.17L595.82 359.39C595.491 359.718 595.23 360.108 595.052 360.537C594.874 360.966 594.782 361.426 594.782 361.89C594.782 362.355 594.874 362.814 595.052 363.243C595.23 363.672 595.491 364.062 595.82 364.39L607.11 375.96C607.431 376.296 607.816 376.565 608.241 376.751C608.667 376.938 609.125 377.039 609.589 377.048C610.054 377.057 610.516 376.975 610.948 376.805C611.381 376.636 611.776 376.383 612.11 376.06L623.18 365.61C623.868 364.972 624.274 364.087 624.31 363.149C624.345 362.212 624.007 361.298 623.37 360.61L612.02 348.26C611.696 347.908 611.303 347.626 610.867 347.43C610.43 347.234 609.958 347.128 609.479 347.12C609.001 347.111 608.525 347.2 608.082 347.381C607.639 347.561 607.237 347.83 606.9 348.17ZM562.9 392.16L551.81 403.38C551.148 404.044 550.776 404.943 550.776 405.88C550.776 406.817 551.148 407.716 551.81 408.38L563.09 419.86C563.736 420.524 564.617 420.908 565.543 420.928C566.469 420.949 567.366 420.605 568.04 419.97L579.12 409.51C579.796 408.875 580.194 407.999 580.228 407.072C580.262 406.145 579.928 405.242 579.3 404.56L568.02 392.26C567.697 391.906 567.306 391.622 566.869 391.424C566.433 391.226 565.961 391.12 565.482 391.11C565.003 391.101 564.527 391.189 564.083 391.37C563.639 391.55 563.237 391.819 562.9 392.16ZM627.64 368.91L616.55 380.13C616.221 380.458 615.96 380.848 615.782 381.277C615.604 381.706 615.512 382.166 615.512 382.63C615.512 383.095 615.604 383.554 615.782 383.983C615.96 384.412 616.221 384.802 616.55 385.13L627.83 396.7C628.479 397.377 629.37 397.768 630.307 397.789C631.245 397.81 632.152 397.458 632.83 396.81L643.9 386.3C644.584 385.659 644.987 384.774 645.021 383.837C645.054 382.9 644.716 381.988 644.08 381.3L632.8 368.97C632.475 368.611 632.079 368.323 631.637 368.124C631.195 367.926 630.717 367.82 630.233 367.814C629.749 367.809 629.269 367.903 628.822 368.092C628.376 368.28 627.974 368.559 627.64 368.91ZM649.41 390.69L638.33 401.91C637.681 402.57 637.317 403.459 637.317 404.385C637.317 405.311 637.681 406.2 638.33 406.86L649.62 418.43C649.941 418.766 650.326 419.035 650.751 419.221C651.177 419.408 651.635 419.509 652.099 419.518C652.564 419.527 653.026 419.445 653.458 419.275C653.891 419.106 654.286 418.853 654.62 418.53L665.69 408.08C666.378 407.442 666.784 406.557 666.82 405.619C666.855 404.682 666.517 403.768 665.88 403.08L654.6 390.74C654.272 390.38 653.873 390.091 653.429 389.892C652.984 389.693 652.503 389.587 652.016 389.583C651.529 389.578 651.046 389.674 650.597 389.865C650.149 390.055 649.745 390.336 649.41 390.69ZM671.44 412.71L660.36 423.94C659.711 424.6 659.347 425.489 659.347 426.415C659.347 427.341 659.711 428.23 660.36 428.89L671.65 440.46C672.296 441.125 673.178 441.509 674.104 441.527C675.031 441.546 675.928 441.198 676.6 440.56L687.68 430.11C688.368 429.472 688.774 428.587 688.81 427.649C688.845 426.712 688.507 425.798 687.87 425.11L676.57 412.86C676.249 412.504 675.859 412.216 675.424 412.015C674.988 411.814 674.517 411.703 674.037 411.689C673.558 411.675 673.08 411.758 672.634 411.933C672.188 412.109 671.781 412.373 671.44 412.71ZM584.35 412.2L573.26 423.42C572.611 424.08 572.247 424.969 572.247 425.895C572.247 426.821 572.611 427.71 573.26 428.37L584.54 439.94C584.861 440.276 585.246 440.544 585.671 440.731C586.097 440.918 586.555 441.019 587.019 441.028C587.484 441.037 587.946 440.955 588.378 440.785C588.811 440.616 589.206 440.363 589.54 440.04L600.62 429.59C601.304 428.949 601.707 428.064 601.741 427.127C601.774 426.19 601.436 425.278 600.8 424.59L589.52 412.26C589.195 411.9 588.798 411.61 588.356 411.411C587.913 411.211 587.434 411.105 586.948 411.099C586.463 411.093 585.981 411.188 585.534 411.378C585.087 411.567 584.684 411.847 584.35 412.2ZM606.12 433.97L595.04 445.2C594.711 445.528 594.45 445.918 594.272 446.347C594.094 446.776 594.002 447.236 594.002 447.7C594.002 448.165 594.094 448.624 594.272 449.053C594.45 449.482 594.711 449.872 595.04 450.2L606.33 461.77C606.651 462.106 607.036 462.375 607.461 462.561C607.887 462.748 608.345 462.849 608.809 462.858C609.274 462.867 609.736 462.785 610.168 462.615C610.601 462.446 610.996 462.193 611.33 461.87L622.4 451.42C623.088 450.782 623.494 449.897 623.53 448.959C623.565 448.022 623.227 447.108 622.59 446.42L611.31 434.08C610.986 433.716 610.591 433.422 610.148 433.218C609.706 433.014 609.226 432.903 608.739 432.892C608.252 432.882 607.768 432.972 607.317 433.158C606.866 433.343 606.459 433.62 606.12 433.97ZM628.15 456L617.07 467.23C616.421 467.89 616.057 468.779 616.057 469.705C616.057 470.631 616.421 471.52 617.07 472.18L628.36 483.75C629.01 484.425 629.902 484.815 630.839 484.834C631.777 484.853 632.683 484.499 633.36 483.85L644.43 473.39C645.108 472.756 645.508 471.881 645.543 470.954C645.579 470.027 645.247 469.124 644.62 468.44L633.34 456.1C633.016 455.736 632.62 455.444 632.177 455.24C631.734 455.037 631.254 454.927 630.767 454.918C630.28 454.908 629.796 454.999 629.346 455.186C628.895 455.372 628.488 455.649 628.15 456ZM693.47 434.74L682.39 445.97C681.741 446.63 681.377 447.519 681.377 448.445C681.377 449.371 681.741 450.26 682.39 450.92L693.68 462.49C694.001 462.826 694.386 463.095 694.811 463.281C695.237 463.468 695.695 463.569 696.159 463.578C696.624 463.587 697.086 463.505 697.518 463.335C697.951 463.166 698.346 462.913 698.68 462.59L709.76 452.14C710.101 451.824 710.376 451.444 710.57 451.021C710.764 450.599 710.872 450.142 710.889 449.677C710.906 449.213 710.83 448.75 710.668 448.314C710.505 447.879 710.258 447.48 709.94 447.14L698.59 434.86C698.269 434.505 697.878 434.219 697.442 434.019C697.007 433.82 696.535 433.711 696.056 433.7C695.577 433.689 695.1 433.775 694.656 433.954C694.211 434.133 693.808 434.4 693.47 434.74ZM715.5 456.77L704.41 468C703.761 468.66 703.397 469.549 703.397 470.475C703.397 471.401 703.761 472.29 704.41 472.95L715.7 484.52C716.021 484.856 716.406 485.125 716.831 485.311C717.257 485.498 717.715 485.599 718.179 485.608C718.644 485.617 719.106 485.535 719.538 485.365C719.971 485.196 720.366 484.943 720.7 484.62L731.78 474.16C732.456 473.525 732.854 472.649 732.888 471.722C732.922 470.795 732.588 469.892 731.96 469.21L720.62 456.86C720.296 456.507 719.904 456.223 719.467 456.026C719.031 455.83 718.558 455.724 718.079 455.715C717.6 455.707 717.125 455.796 716.681 455.977C716.238 456.159 715.836 456.428 715.5 456.77ZM738.9 477.39L725.13 491.39C724.825 491.699 724.654 492.116 724.654 492.55C724.654 492.984 724.825 493.401 725.13 493.71L739.01 507.86C739.319 508.165 739.736 508.337 740.17 508.337C740.604 508.337 741.021 508.165 741.33 507.86L755.1 494.86C755.414 494.56 755.598 494.15 755.613 493.716C755.628 493.283 755.473 492.86 755.18 492.54L741.32 477.38C741.164 477.215 740.976 477.084 740.768 476.995C740.559 476.906 740.335 476.861 740.108 476.861C739.881 476.862 739.657 476.91 739.449 477.001C739.242 477.092 739.055 477.224 738.9 477.39ZM758.42 496.86L744.65 510.86C744.345 511.169 744.173 511.586 744.173 512.02C744.173 512.454 744.345 512.871 744.65 513.18L758.52 527.39C758.829 527.695 759.246 527.867 759.68 527.867C760.114 527.867 760.531 527.695 760.84 527.39L774.61 514.39C774.924 514.09 775.108 513.68 775.123 513.246C775.138 512.813 774.983 512.39 774.69 512.07L760.83 496.91C760.678 496.743 760.494 496.609 760.289 496.515C760.084 496.422 759.861 496.371 759.636 496.367C759.41 496.362 759.186 496.403 758.977 496.488C758.768 496.573 758.579 496.699 758.42 496.86ZM780.26 518.73L766.48 532.73C766.178 533.038 766.008 533.453 766.008 533.885C766.008 534.317 766.178 534.732 766.48 535.04L780.34 549.26C780.65 549.563 781.067 549.733 781.5 549.733C781.934 549.733 782.35 549.563 782.66 549.26L796.43 536.26C796.748 535.963 796.935 535.553 796.952 535.119C796.969 534.684 796.814 534.261 796.52 533.94L782.66 518.78C782.508 518.615 782.325 518.482 782.121 518.389C781.916 518.297 781.695 518.247 781.471 518.242C781.246 518.237 781.024 518.278 780.815 518.362C780.607 518.446 780.418 518.571 780.26 518.73ZM801.41 539.86L787.64 553.86C787.335 554.169 787.163 554.586 787.163 555.02C787.163 555.454 787.335 555.871 787.64 556.18L801.5 570.39C801.812 570.694 802.23 570.863 802.665 570.863C803.1 570.863 803.518 570.694 803.83 570.39L817.59 557.39C817.908 557.093 818.095 556.683 818.112 556.249C818.129 555.814 817.974 555.391 817.68 555.07L803.82 539.91C803.668 539.743 803.484 539.609 803.279 539.515C803.074 539.422 802.851 539.371 802.626 539.367C802.4 539.362 802.176 539.403 801.967 539.488C801.758 539.573 801.569 539.699 801.41 539.86ZM628.48 411.62L617.39 422.86C616.741 423.52 616.377 424.409 616.377 425.335C616.377 426.261 616.741 427.15 617.39 427.81L628.68 439.38C629.001 439.717 629.385 439.987 629.81 440.174C630.236 440.362 630.694 440.463 631.159 440.472C631.624 440.482 632.086 440.399 632.519 440.228C632.952 440.058 633.346 439.804 633.68 439.48L644.76 429.03C645.446 428.391 645.851 427.505 645.885 426.567C645.918 425.63 645.579 424.717 644.94 424.03L633.6 411.72C633.278 411.365 632.887 411.079 632.45 410.881C632.014 410.682 631.541 410.575 631.062 410.566C630.582 410.556 630.106 410.645 629.662 410.826C629.218 411.008 628.816 411.278 628.48 411.62ZM650.51 433.65L639.42 444.86C638.771 445.52 638.407 446.409 638.407 447.335C638.407 448.261 638.771 449.15 639.42 449.81L650.71 461.38C651.031 461.717 651.415 461.987 651.84 462.174C652.266 462.362 652.724 462.463 653.189 462.472C653.654 462.482 654.116 462.399 654.549 462.228C654.982 462.058 655.376 461.804 655.71 461.48L666.79 451.03C667.474 450.389 667.877 449.504 667.911 448.567C667.944 447.63 667.606 446.718 666.97 446.03L655.69 433.7C655.364 433.339 654.966 433.049 654.522 432.849C654.078 432.649 653.598 432.543 653.111 432.539C652.624 432.534 652.142 432.63 651.694 432.822C651.246 433.013 650.843 433.295 650.51 433.65ZM672.54 455.68L661.45 466.86C660.801 467.52 660.437 468.409 660.437 469.335C660.437 470.261 660.801 471.15 661.45 471.81L672.73 483.38C673.051 483.716 673.436 483.984 673.861 484.171C674.287 484.358 674.745 484.459 675.209 484.468C675.674 484.477 676.136 484.395 676.568 484.225C677.001 484.056 677.396 483.803 677.73 483.48L688.81 473.03C689.494 472.389 689.897 471.504 689.931 470.567C689.964 469.63 689.626 468.718 688.99 468.03L677.71 455.69C677.38 455.334 676.981 455.05 676.536 454.855C676.092 454.661 675.612 454.56 675.127 454.559C674.642 454.558 674.162 454.657 673.717 454.85C673.272 455.043 672.871 455.325 672.54 455.68ZM694.57 477.71L683.48 488.93C682.831 489.59 682.467 490.479 682.467 491.405C682.467 492.331 682.831 493.22 683.48 493.88L694.76 505.45C695.081 505.786 695.466 506.055 695.891 506.241C696.317 506.428 696.775 506.529 697.239 506.538C697.704 506.547 698.166 506.465 698.598 506.295C699.031 506.126 699.426 505.872 699.76 505.55L710.84 495.1C711.524 494.459 711.927 493.574 711.961 492.637C711.994 491.7 711.656 490.788 711.02 490.1L699.74 477.76C699.413 477.402 699.016 477.114 698.573 476.916C698.13 476.718 697.651 476.614 697.166 476.609C696.681 476.604 696.2 476.699 695.753 476.889C695.307 477.078 694.904 477.358 694.57 477.71ZM717.99 498.33L704.21 512.27C703.907 512.58 703.737 512.996 703.737 513.43C703.737 513.864 703.907 514.28 704.21 514.59L718.07 528.8C718.379 529.105 718.796 529.277 719.23 529.277C719.664 529.277 720.081 529.105 720.39 528.8L734.16 515.8C734.478 515.503 734.665 515.093 734.682 514.659C734.699 514.224 734.544 513.801 734.25 513.48L720.39 498.31C720.234 498.148 720.047 498.019 719.84 497.932C719.633 497.845 719.41 497.801 719.186 497.802C718.961 497.804 718.739 497.852 718.533 497.943C718.328 498.034 718.143 498.165 717.99 498.33ZM737.49 517.86L723.71 531.8C723.407 532.11 723.237 532.526 723.237 532.96C723.237 533.394 723.407 533.81 723.71 534.12L737.57 548.33C737.879 548.635 738.296 548.807 738.73 548.807C739.164 548.807 739.581 548.635 739.89 548.33L753.66 535.33C753.978 535.033 754.165 534.623 754.182 534.189C754.199 533.754 754.044 533.331 753.75 533.01L739.9 517.86C739.746 517.695 739.559 517.563 739.352 517.474C739.145 517.384 738.921 517.337 738.695 517.337C738.469 517.337 738.246 517.384 738.038 517.474C737.831 517.563 737.644 517.695 737.49 517.86ZM759.32 539.66L745.55 553.66C745.247 553.97 745.078 554.386 745.078 554.82C745.078 555.254 745.247 555.67 745.55 555.98L759.41 570.19C759.712 570.502 760.125 570.682 760.56 570.692C760.994 570.701 761.415 570.539 761.73 570.24L775.5 557.24C775.818 556.943 776.005 556.533 776.022 556.099C776.039 555.664 775.884 555.241 775.59 554.92L761.72 539.76C761.572 539.591 761.391 539.454 761.189 539.357C760.986 539.26 760.766 539.206 760.541 539.196C760.317 539.187 760.093 539.223 759.883 539.303C759.673 539.383 759.482 539.504 759.32 539.66ZM780.48 560.86L766.7 574.76C766.397 575.07 766.227 575.486 766.227 575.92C766.227 576.354 766.397 576.77 766.7 577.08L780.56 591.29C780.862 591.602 781.275 591.782 781.71 591.792C782.144 591.801 782.565 591.639 782.88 591.34L796.65 578.34C796.968 578.043 797.155 577.633 797.172 577.199C797.189 576.764 797.034 576.341 796.74 576.02L782.9 560.86C782.746 560.692 782.559 560.558 782.351 560.466C782.143 560.374 781.918 560.327 781.69 560.327C781.462 560.327 781.237 560.374 781.029 560.466C780.821 560.558 780.634 560.692 780.48 560.86ZM822.56 561.03L808.79 575.03C808.485 575.339 808.313 575.756 808.313 576.19C808.313 576.624 808.485 577.041 808.79 577.35L822.66 591.56C822.962 591.872 823.375 592.052 823.81 592.062C824.244 592.071 824.665 591.909 824.98 591.61L838.75 578.61C839.064 578.31 839.248 577.9 839.263 577.466C839.278 577.033 839.123 576.61 838.83 576.29L824.97 561.13C824.822 560.96 824.64 560.821 824.437 560.724C824.233 560.626 824.012 560.57 823.787 560.561C823.561 560.552 823.336 560.589 823.125 560.669C822.914 560.75 822.722 560.873 822.56 561.03ZM843.71 582.19L829.9 596.13C829.595 596.439 829.423 596.856 829.423 597.29C829.423 597.724 829.595 598.141 829.9 598.45L843.8 612.66C844.102 612.972 844.515 613.152 844.95 613.162C845.384 613.171 845.805 613.009 846.12 612.71L859.89 599.71C860.204 599.41 860.388 599 860.403 598.566C860.418 598.133 860.263 597.71 859.97 597.39L846.11 582.23C845.959 582.064 845.775 581.931 845.57 581.838C845.365 581.746 845.143 581.696 844.919 581.692C844.694 581.689 844.471 581.731 844.263 581.816C844.055 581.902 843.867 582.029 843.71 582.19ZM736.56 562.43L723.56 575.56C723.153 575.975 722.924 576.533 722.924 577.115C722.924 577.697 723.153 578.255 723.56 578.67L736.65 592.09C737.057 592.505 737.611 592.745 738.193 592.756C738.774 592.767 739.337 592.549 739.76 592.15L752.76 579.92C753.17 579.524 753.413 578.987 753.439 578.418C753.465 577.849 753.272 577.291 752.9 576.86L739.81 562.54C739.609 562.311 739.363 562.125 739.088 561.995C738.813 561.865 738.513 561.792 738.209 561.782C737.904 561.771 737.601 561.823 737.317 561.935C737.034 562.047 736.776 562.215 736.56 562.43ZM757.71 583.58L744.71 596.71C744.303 597.125 744.074 597.683 744.074 598.265C744.074 598.847 744.303 599.405 744.71 599.82L757.8 613.24C758.207 613.655 758.761 613.895 759.343 613.906C759.924 613.917 760.487 613.699 760.91 613.3L773.91 601.07C774.334 600.671 774.584 600.121 774.606 599.54C774.629 598.958 774.422 598.391 774.03 597.96L760.9 583.64C760.696 583.423 760.451 583.25 760.18 583.129C759.908 583.009 759.615 582.944 759.318 582.938C759.02 582.933 758.725 582.987 758.449 583.097C758.173 583.207 757.922 583.371 757.71 583.58ZM778.9 604.73L765.9 617.86C765.493 618.275 765.264 618.833 765.264 619.415C765.264 619.997 765.493 620.555 765.9 620.97L778.99 634.39C779.396 634.807 779.949 635.048 780.531 635.061C781.112 635.074 781.676 634.858 782.1 634.46L795.1 622.22C795.526 621.822 795.778 621.272 795.8 620.69C795.823 620.107 795.614 619.539 795.22 619.11L782.13 604.8C781.928 604.574 781.682 604.392 781.407 604.265C781.132 604.139 780.833 604.07 780.53 604.063C780.227 604.057 779.926 604.113 779.646 604.227C779.365 604.342 779.112 604.513 778.9 604.73ZM800.43 625.46L786.66 639.41C786.357 639.72 786.187 640.136 786.188 640.57C786.188 641.004 786.357 641.42 786.66 641.73L800.53 655.94C800.839 656.245 801.256 656.417 801.69 656.417C802.124 656.417 802.541 656.245 802.85 655.94L816.62 642.94C816.936 642.642 817.122 642.231 817.137 641.796C817.152 641.362 816.995 640.939 816.7 640.62L802.84 625.46C802.685 625.296 802.498 625.166 802.291 625.077C802.084 624.988 801.861 624.942 801.635 624.942C801.41 624.942 801.186 624.988 800.979 625.077C800.772 625.166 800.585 625.296 800.43 625.46ZM585.1 368.8L573.28 380.86C572.951 381.188 572.69 381.578 572.512 382.007C572.334 382.436 572.242 382.895 572.242 383.36C572.242 383.824 572.334 384.284 572.512 384.713C572.69 385.142 572.951 385.532 573.28 385.86L606.28 418.53C606.932 419.173 607.807 419.539 608.723 419.55C609.638 419.561 610.523 419.217 611.19 418.59L623.51 407C623.856 406.675 624.133 406.283 624.325 405.848C624.516 405.414 624.618 404.945 624.625 404.47C624.631 403.995 624.542 403.524 624.363 403.084C624.183 402.644 623.917 402.245 623.58 401.91L590.08 368.77C589.415 368.116 588.517 367.752 587.584 367.757C586.651 367.763 585.758 368.138 585.1 368.8ZM801.11 582.14L786.66 596.86C786.356 597.173 786.186 597.593 786.186 598.03C786.186 598.467 786.356 598.887 786.66 599.2L822.27 634.45C822.578 634.749 822.991 634.917 823.42 634.917C823.85 634.917 824.262 634.749 824.57 634.45L839.63 620.28C839.79 620.126 839.918 619.941 840.005 619.737C840.092 619.532 840.137 619.312 840.137 619.09C840.137 618.868 840.092 618.648 840.005 618.443C839.918 618.239 839.79 618.054 839.63 617.9L803.4 582.06C803.081 581.776 802.665 581.627 802.239 581.642C801.813 581.656 801.408 581.835 801.11 582.14ZM650.9 476.68L637.11 490.34C636.956 490.492 636.834 490.674 636.751 490.874C636.667 491.074 636.624 491.288 636.624 491.505C636.624 491.722 636.667 491.936 636.751 492.136C636.834 492.336 636.956 492.518 637.11 492.67L713.9 571.38C714.21 571.683 714.627 571.853 715.06 571.853C715.494 571.853 715.91 571.683 716.22 571.38L731.22 557.23C731.379 557.076 731.505 556.892 731.591 556.688C731.677 556.485 731.722 556.266 731.722 556.045C731.722 555.824 731.677 555.605 731.591 555.402C731.505 555.198 731.379 555.014 731.22 554.86L653.22 476.65C652.906 476.351 652.488 476.187 652.054 476.192C651.62 476.198 651.206 476.373 650.9 476.68Z" fill="black"/>
<path d="M627.03 325.61L615.9 336.86C615.251 337.52 614.887 338.409 614.887 339.335C614.887 340.261 615.251 341.15 615.9 341.81L627.18 353.38C627.83 354.055 628.722 354.445 629.659 354.464C630.597 354.483 631.503 354.129 632.18 353.48L643.26 343.02C643.934 342.384 644.33 341.508 644.364 340.582C644.398 339.656 644.066 338.754 643.44 338.07L632.16 325.73C631.838 325.373 631.447 325.086 631.011 324.886C630.574 324.685 630.101 324.576 629.621 324.565C629.141 324.554 628.663 324.64 628.218 324.82C627.772 325 627.368 325.269 627.03 325.61ZM647.77 346.36L636.68 357.58C636.031 358.24 635.667 359.129 635.667 360.055C635.667 360.981 636.031 361.87 636.68 362.53L647.96 374.1C648.281 374.436 648.666 374.704 649.091 374.891C649.517 375.078 649.975 375.179 650.439 375.188C650.904 375.197 651.366 375.115 651.798 374.945C652.231 374.776 652.626 374.523 652.96 374.2L664.04 363.75C664.724 363.109 665.127 362.224 665.161 361.287C665.194 360.35 664.856 359.438 664.22 358.75L652.9 346.45C652.576 346.095 652.184 345.81 651.746 345.613C651.308 345.415 650.835 345.308 650.354 345.3C649.874 345.292 649.397 345.381 648.953 345.563C648.509 345.746 648.106 346.017 647.77 346.36ZM669.55 368.13L658.46 379.36C657.813 380.021 657.451 380.91 657.451 381.835C657.451 382.76 657.813 383.649 658.46 384.31L669.73 395.86C670.38 396.535 671.272 396.925 672.209 396.944C673.147 396.963 674.053 396.609 674.73 395.96L685.81 385.5C686.151 385.184 686.426 384.804 686.62 384.381C686.814 383.959 686.922 383.502 686.939 383.037C686.956 382.573 686.88 382.11 686.718 381.674C686.555 381.239 686.307 380.84 685.99 380.5L674.71 368.16C674.382 367.804 673.984 367.52 673.541 367.325C673.099 367.129 672.62 367.027 672.137 367.024C671.653 367.021 671.173 367.118 670.728 367.308C670.283 367.499 669.882 367.778 669.55 368.13ZM691.57 390.16L680.49 401.38C679.831 402.045 679.46 402.944 679.46 403.88C679.46 404.817 679.831 405.715 680.49 406.38L691.78 417.95C692.43 418.625 693.322 419.015 694.259 419.034C695.197 419.053 696.103 418.699 696.78 418.05L707.85 407.59C708.528 406.956 708.928 406.081 708.963 405.154C708.999 404.227 708.667 403.324 708.04 402.64L696.7 390.26C696.376 389.906 695.984 389.621 695.547 389.423C695.109 389.226 694.636 389.119 694.156 389.109C693.677 389.1 693.2 389.188 692.755 389.369C692.311 389.55 691.907 389.819 691.57 390.16ZM713.6 412.19L702.52 423.41C701.858 424.074 701.486 424.973 701.486 425.91C701.486 426.847 701.858 427.746 702.52 428.41L713.81 439.97C714.459 440.647 715.35 441.038 716.287 441.059C717.225 441.08 718.132 440.728 718.81 440.08L729.88 429.62C730.223 429.305 730.5 428.926 730.695 428.504C730.891 428.081 731 427.625 731.018 427.16C731.036 426.695 730.961 426.231 730.798 425.795C730.636 425.359 730.388 424.96 730.07 424.62L718.79 412.28C718.465 411.917 718.068 411.625 717.625 411.423C717.182 411.22 716.702 411.111 716.215 411.103C715.728 411.094 715.244 411.186 714.794 411.373C714.344 411.561 713.938 411.839 713.6 412.19ZM737.02 432.86L723.25 446.76C722.948 447.068 722.778 447.483 722.778 447.915C722.778 448.347 722.948 448.762 723.25 449.07L737.12 463.29C737.424 463.6 737.836 463.778 738.27 463.788C738.703 463.797 739.123 463.636 739.44 463.34L753.21 450.34C753.526 450.042 753.712 449.631 753.727 449.196C753.742 448.762 753.585 448.339 753.29 448.02L739.42 432.86C739.265 432.698 739.079 432.569 738.873 432.481C738.666 432.392 738.444 432.347 738.22 432.347C737.996 432.347 737.774 432.392 737.568 432.481C737.361 432.569 737.175 432.698 737.02 432.86ZM759.05 454.86L745.28 468.81C744.978 469.118 744.808 469.533 744.808 469.965C744.808 470.397 744.978 470.812 745.28 471.12L759.15 485.34C759.46 485.643 759.877 485.813 760.31 485.813C760.744 485.813 761.16 485.643 761.47 485.34L775.24 472.34C775.556 472.042 775.742 471.631 775.757 471.196C775.772 470.762 775.615 470.339 775.32 470.02L761.45 454.86C761.295 454.698 761.109 454.569 760.903 454.481C760.696 454.392 760.474 454.347 760.25 454.347C760.026 454.347 759.804 454.392 759.598 454.481C759.391 454.569 759.205 454.698 759.05 454.86ZM778.55 474.34L764.78 488.29C764.478 488.598 764.308 489.013 764.308 489.445C764.308 489.877 764.478 490.292 764.78 490.6L778.64 504.86C778.95 505.163 779.367 505.333 779.8 505.333C780.234 505.333 780.65 505.163 780.96 504.86L794.73 491.86C795.046 491.562 795.232 491.151 795.247 490.716C795.262 490.282 795.105 489.859 794.81 489.54L780.95 474.38C780.798 474.215 780.614 474.083 780.409 473.991C780.204 473.9 779.983 473.851 779.759 473.847C779.534 473.843 779.312 473.885 779.104 473.97C778.896 474.054 778.708 474.18 778.55 474.34ZM800.39 496.18L786.62 510.12C786.315 510.429 786.143 510.846 786.143 511.28C786.143 511.714 786.315 512.131 786.62 512.44L800.49 526.65C800.792 526.962 801.205 527.142 801.64 527.152C802.074 527.161 802.495 526.999 802.81 526.7L816.58 513.7C816.894 513.4 817.078 512.99 817.093 512.556C817.108 512.123 816.953 511.7 816.66 511.38L802.8 496.21C802.647 496.044 802.462 495.912 802.256 495.82C802.05 495.728 801.827 495.68 801.602 495.677C801.376 495.674 801.152 495.717 800.944 495.804C800.736 495.89 800.547 496.018 800.39 496.18ZM821.54 517.33L807.77 531.27C807.465 531.579 807.293 531.996 807.293 532.43C807.293 532.864 807.465 533.281 807.77 533.59L821.63 547.86C821.94 548.163 822.356 548.333 822.79 548.333C823.224 548.333 823.64 548.163 823.95 547.86L837.72 534.86C838.034 534.56 838.218 534.15 838.233 533.716C838.248 533.283 838.093 532.86 837.8 532.54L823.9 517.38C823.749 517.221 823.568 517.093 823.367 517.004C823.166 516.915 822.95 516.867 822.73 516.862C822.511 516.858 822.293 516.897 822.088 516.977C821.884 517.057 821.698 517.177 821.54 517.33ZM842.69 538.48L828.92 552.48C828.618 552.788 828.448 553.203 828.448 553.635C828.448 554.067 828.618 554.482 828.92 554.79L842.79 569.01C843.1 569.313 843.517 569.483 843.95 569.483C844.384 569.483 844.8 569.313 845.11 569.01L858.88 556.01C859.196 555.712 859.382 555.301 859.397 554.866C859.412 554.432 859.255 554.009 858.96 553.69L845.1 538.53C844.948 538.363 844.764 538.229 844.559 538.135C844.354 538.042 844.131 537.991 843.906 537.987C843.68 537.982 843.456 538.023 843.247 538.108C843.038 538.193 842.849 538.319 842.69 538.48ZM863.84 559.63L850.07 573.63C849.767 573.94 849.597 574.356 849.597 574.79C849.597 575.224 849.767 575.64 850.07 575.95L863.9 590.11C864.21 590.413 864.627 590.583 865.06 590.583C865.494 590.583 865.91 590.413 866.22 590.11L879.99 577.11C880.306 576.812 880.492 576.401 880.507 575.966C880.522 575.532 880.365 575.109 880.07 574.79L866.21 559.63C866.056 559.472 865.871 559.347 865.668 559.262C865.464 559.176 865.246 559.133 865.025 559.133C864.804 559.133 864.586 559.176 864.382 559.262C864.179 559.347 863.995 559.472 863.84 559.63ZM606.9 345.75L595.82 356.97C595.171 357.63 594.807 358.519 594.807 359.445C594.807 360.371 595.171 361.26 595.82 361.92L607.11 373.49C607.431 373.826 607.816 374.095 608.241 374.281C608.667 374.468 609.125 374.569 609.589 374.578C610.054 374.587 610.516 374.505 610.948 374.335C611.381 374.166 611.776 373.913 612.11 373.59L623.18 363.14C623.868 362.502 624.274 361.617 624.31 360.679C624.345 359.742 624.007 358.829 623.37 358.14L612.02 345.86C611.697 345.507 611.306 345.223 610.87 345.025C610.434 344.827 609.962 344.72 609.484 344.71C609.005 344.699 608.529 344.786 608.085 344.965C607.641 345.144 607.238 345.411 606.9 345.75ZM562.9 389.74L551.81 400.96C551.148 401.624 550.776 402.523 550.776 403.46C550.776 404.397 551.148 405.296 551.81 405.96L563.1 417.52C563.746 418.184 564.627 418.568 565.553 418.588C566.479 418.609 567.376 418.265 568.05 417.63L579.13 407.17C579.816 406.531 580.221 405.645 580.255 404.707C580.288 403.77 579.949 402.857 579.31 402.17L568.02 389.86C567.699 389.504 567.309 389.216 566.873 389.016C566.437 388.816 565.965 388.707 565.486 388.696C565.007 388.684 564.53 388.771 564.085 388.951C563.64 389.13 563.237 389.399 562.9 389.74ZM627.64 366.49L616.55 377.71C615.901 378.37 615.537 379.259 615.537 380.185C615.537 381.111 615.901 382 616.55 382.66L627.83 394.23C628.151 394.566 628.536 394.835 628.961 395.021C629.387 395.208 629.845 395.309 630.309 395.318C630.774 395.327 631.236 395.245 631.668 395.075C632.101 394.906 632.496 394.653 632.83 394.33L643.9 383.86C644.584 383.219 644.987 382.334 645.021 381.397C645.054 380.46 644.716 379.548 644.08 378.86L632.8 366.53C632.473 366.172 632.076 365.886 631.634 365.689C631.191 365.492 630.713 365.388 630.229 365.385C629.744 365.381 629.265 365.477 628.819 365.667C628.374 365.857 627.972 366.138 627.64 366.49ZM649.41 388.26L638.33 399.49C637.681 400.15 637.317 401.039 637.317 401.965C637.317 402.891 637.681 403.78 638.33 404.44L649.62 416.01C649.941 416.346 650.326 416.615 650.751 416.801C651.177 416.988 651.635 417.089 652.099 417.098C652.564 417.107 653.026 417.025 653.458 416.855C653.891 416.686 654.286 416.432 654.62 416.11L665.69 405.66C666.378 405.022 666.784 404.137 666.82 403.199C666.855 402.262 666.517 401.348 665.88 400.66L654.54 388.36C654.215 388.007 653.823 387.724 653.386 387.527C652.948 387.33 652.476 387.223 651.996 387.214C651.517 387.205 651.041 387.292 650.596 387.472C650.152 387.652 649.748 387.92 649.41 388.26ZM671.44 410.29L660.36 421.52C659.711 422.18 659.347 423.069 659.347 423.995C659.347 424.921 659.711 425.81 660.36 426.47L671.65 438.04C672.297 438.703 673.179 439.085 674.105 439.103C675.031 439.122 675.927 438.776 676.6 438.14L687.68 427.69C688.368 427.052 688.774 426.167 688.81 425.229C688.845 424.292 688.507 423.378 687.87 422.69L676.59 410.35C676.263 409.995 675.867 409.711 675.427 409.515C674.986 409.319 674.51 409.215 674.028 409.209C673.546 409.203 673.067 409.296 672.622 409.482C672.177 409.668 671.775 409.943 671.44 410.29ZM584.35 409.78L573.26 421C572.611 421.66 572.247 422.549 572.247 423.475C572.247 424.401 572.611 425.29 573.26 425.95L584.54 437.52C584.861 437.856 585.246 438.125 585.671 438.311C586.097 438.498 586.555 438.599 587.019 438.608C587.484 438.617 587.946 438.535 588.378 438.365C588.811 438.196 589.206 437.943 589.54 437.62L600.62 427.17C601.304 426.529 601.707 425.644 601.741 424.707C601.774 423.77 601.436 422.858 600.8 422.17L589.47 409.86C589.146 409.506 588.754 409.222 588.317 409.025C587.88 408.829 587.407 408.723 586.927 408.716C586.448 408.708 585.972 408.799 585.529 408.982C585.086 409.165 584.684 409.436 584.35 409.78ZM606.12 431.55L595.04 442.78C594.391 443.44 594.027 444.329 594.027 445.255C594.027 446.181 594.391 447.07 595.04 447.73L606.33 459.3C606.98 459.975 607.872 460.365 608.809 460.384C609.747 460.403 610.653 460.049 611.33 459.4L622.4 448.95C623.088 448.312 623.494 447.427 623.53 446.489C623.565 445.552 623.227 444.639 622.59 443.95L611.31 431.61C610.983 431.249 610.585 430.959 610.14 430.759C609.696 430.559 609.215 430.453 608.728 430.448C608.241 430.442 607.758 430.537 607.309 430.727C606.86 430.916 606.456 431.197 606.12 431.55ZM628.15 453.58L617.07 464.86C616.421 465.52 616.057 466.409 616.057 467.335C616.057 468.261 616.421 469.15 617.07 469.81L628.36 481.38C629.01 482.055 629.902 482.445 630.839 482.464C631.777 482.483 632.683 482.129 633.36 481.48L644.43 471.02C645.108 470.386 645.508 469.511 645.543 468.584C645.579 467.657 645.247 466.754 644.62 466.07L633.34 453.73C633.019 453.363 632.626 453.066 632.185 452.859C631.744 452.651 631.265 452.536 630.778 452.522C630.291 452.508 629.806 452.595 629.354 452.777C628.901 452.959 628.492 453.232 628.15 453.58ZM693.47 432.32L682.39 443.55C681.741 444.21 681.377 445.099 681.377 446.025C681.377 446.951 681.741 447.84 682.39 448.5L693.68 460.07C694.001 460.406 694.386 460.674 694.811 460.861C695.237 461.048 695.695 461.149 696.159 461.158C696.624 461.167 697.086 461.085 697.518 460.915C697.951 460.746 698.346 460.493 698.68 460.17L709.76 449.71C710.102 449.395 710.379 449.015 710.573 448.592C710.768 448.17 710.876 447.713 710.893 447.248C710.91 446.783 710.834 446.319 710.671 445.883C710.507 445.448 710.259 445.049 709.94 444.71L698.66 432.37C698.333 432.008 697.934 431.718 697.49 431.518C697.045 431.318 696.564 431.213 696.076 431.208C695.588 431.203 695.105 431.3 694.657 431.491C694.208 431.682 693.804 431.965 693.47 432.32ZM715.5 454.35L704.41 465.58C703.761 466.24 703.397 467.129 703.397 468.055C703.397 468.981 703.761 469.87 704.41 470.53L715.7 482.1C716.021 482.436 716.406 482.704 716.831 482.891C717.257 483.078 717.715 483.179 718.179 483.188C718.644 483.197 719.106 483.115 719.538 482.945C719.971 482.776 720.366 482.523 720.7 482.2L731.78 471.74C732.456 471.105 732.854 470.229 732.888 469.302C732.922 468.375 732.588 467.472 731.96 466.79L720.68 454.45C720.357 454.087 719.961 453.794 719.519 453.591C719.078 453.387 718.598 453.278 718.112 453.268C717.626 453.259 717.142 453.35 716.693 453.536C716.243 453.722 715.837 453.999 715.5 454.35ZM738.9 474.97L725.13 488.92C724.825 489.229 724.654 489.646 724.654 490.08C724.654 490.514 724.825 490.931 725.13 491.24L739 505.45C739.309 505.755 739.726 505.927 740.16 505.927C740.594 505.927 741.011 505.755 741.32 505.45L755.09 492.45C755.404 492.15 755.588 491.74 755.603 491.306C755.618 490.873 755.463 490.45 755.17 490.13L741.31 474.97C741.155 474.806 740.968 474.676 740.761 474.587C740.554 474.498 740.331 474.452 740.105 474.452C739.88 474.452 739.656 474.498 739.449 474.587C739.242 474.676 739.055 474.806 738.9 474.97ZM758.42 494.47L744.65 508.42C744.345 508.729 744.173 509.146 744.173 509.58C744.173 510.014 744.345 510.431 744.65 510.74L758.52 524.95C758.829 525.255 759.246 525.427 759.68 525.427C760.114 525.427 760.531 525.255 760.84 524.95L774.61 511.95C774.924 511.65 775.108 511.24 775.123 510.806C775.138 510.373 774.983 509.95 774.69 509.63L760.83 494.47C760.675 494.306 760.488 494.176 760.281 494.087C760.074 493.998 759.851 493.952 759.625 493.952C759.4 493.952 759.176 493.998 758.969 494.087C758.762 494.176 758.575 494.306 758.42 494.47ZM780.26 516.31L766.48 530.26C766.178 530.568 766.008 530.983 766.008 531.415C766.008 531.847 766.178 532.262 766.48 532.57L780.34 546.79C780.65 547.093 781.067 547.263 781.5 547.263C781.934 547.263 782.35 547.093 782.66 546.79L796.43 533.79C796.748 533.493 796.935 533.083 796.952 532.649C796.969 532.214 796.814 531.791 796.52 531.47L782.66 516.36C782.508 516.195 782.325 516.062 782.121 515.969C781.916 515.877 781.695 515.827 781.471 515.822C781.246 515.817 781.024 515.858 780.815 515.942C780.607 516.026 780.418 516.151 780.26 516.31ZM801.41 537.46L787.64 551.41C787.335 551.719 787.163 552.136 787.163 552.57C787.163 553.004 787.335 553.421 787.64 553.73L801.5 567.94C801.812 568.244 802.23 568.413 802.665 568.413C803.1 568.413 803.518 568.244 803.83 567.94L817.59 554.94C817.908 554.643 818.095 554.233 818.112 553.799C818.129 553.364 817.974 552.941 817.68 552.62L803.82 537.46C803.665 537.296 803.478 537.166 803.271 537.077C803.064 536.988 802.841 536.942 802.615 536.942C802.39 536.942 802.166 536.988 801.959 537.077C801.752 537.166 801.565 537.296 801.41 537.46ZM628.48 409.2L617.39 420.42C616.741 421.08 616.377 421.969 616.377 422.895C616.377 423.821 616.741 424.71 617.39 425.37L628.68 436.94C629.001 437.277 629.385 437.547 629.81 437.734C630.236 437.922 630.694 438.023 631.159 438.032C631.624 438.042 632.086 437.959 632.519 437.788C632.952 437.618 633.346 437.364 633.68 437.04L644.76 426.59C645.446 425.951 645.851 425.065 645.885 424.127C645.918 423.19 645.579 422.277 644.94 421.59L633.6 409.3C633.278 408.945 632.887 408.659 632.45 408.461C632.014 408.262 631.541 408.155 631.062 408.146C630.582 408.136 630.106 408.225 629.662 408.406C629.218 408.588 628.816 408.858 628.48 409.2ZM650.51 431.23L639.42 442.45C639.091 442.778 638.83 443.168 638.652 443.597C638.474 444.026 638.382 444.486 638.382 444.95C638.382 445.415 638.474 445.874 638.652 446.303C638.83 446.732 639.091 447.122 639.42 447.45L650.71 459.02C651.031 459.357 651.415 459.627 651.84 459.814C652.266 460.002 652.724 460.103 653.189 460.112C653.654 460.122 654.116 460.039 654.549 459.868C654.982 459.698 655.376 459.444 655.71 459.12L666.79 448.67C667.474 448.029 667.877 447.144 667.911 446.207C667.944 445.27 667.606 444.358 666.97 443.67L655.69 431.34C655.368 430.975 654.974 430.68 654.532 430.475C654.09 430.27 653.611 430.159 653.124 430.148C652.637 430.138 652.154 430.229 651.704 430.415C651.254 430.601 650.847 430.879 650.51 431.23ZM672.54 453.26L661.45 464.48C660.801 465.14 660.437 466.029 660.437 466.955C660.437 467.881 660.801 468.77 661.45 469.43L672.73 481C673.051 481.336 673.436 481.604 673.861 481.791C674.287 481.978 674.745 482.079 675.209 482.088C675.674 482.097 676.136 482.015 676.568 481.845C677.001 481.676 677.396 481.423 677.73 481.1L688.81 470.65C689.494 470.009 689.897 469.124 689.931 468.187C689.964 467.25 689.626 466.338 688.99 465.65L677.71 453.31C677.383 452.952 676.986 452.664 676.543 452.466C676.1 452.268 675.621 452.164 675.136 452.159C674.651 452.154 674.17 452.249 673.723 452.439C673.277 452.628 672.874 452.908 672.54 453.26ZM694.57 475.28L683.48 486.51C683.151 486.838 682.89 487.228 682.712 487.657C682.534 488.086 682.442 488.546 682.442 489.01C682.442 489.475 682.534 489.934 682.712 490.363C682.89 490.792 683.151 491.182 683.48 491.51L694.76 503.08C695.081 503.416 695.466 503.685 695.891 503.871C696.317 504.058 696.775 504.159 697.239 504.168C697.704 504.177 698.166 504.095 698.598 503.925C699.031 503.756 699.426 503.502 699.76 503.18L710.84 492.73C711.524 492.089 711.927 491.204 711.961 490.267C711.994 489.33 711.656 488.418 711.02 487.73L699.74 475.39C699.416 475.029 699.022 474.738 698.582 474.536C698.141 474.333 697.664 474.223 697.179 474.213C696.694 474.203 696.213 474.292 695.764 474.476C695.315 474.659 694.909 474.933 694.57 475.28ZM717.99 495.91L704.21 509.86C703.907 510.17 703.737 510.586 703.737 511.02C703.737 511.454 703.907 511.87 704.21 512.18L718.07 526.39C718.372 526.702 718.785 526.882 719.22 526.892C719.654 526.901 720.075 526.739 720.39 526.44L734.16 513.44C734.478 513.141 734.666 512.73 734.683 512.293C734.7 511.857 734.544 511.432 734.25 511.11L720.39 495.95C720.239 495.784 720.055 495.651 719.85 495.558C719.645 495.466 719.423 495.416 719.199 495.412C718.974 495.409 718.751 495.451 718.543 495.536C718.335 495.622 718.147 495.749 717.99 495.91ZM737.49 515.41L723.71 529.35C723.407 529.66 723.237 530.076 723.237 530.51C723.237 530.944 723.407 531.36 723.71 531.67L737.57 545.86C737.872 546.172 738.285 546.352 738.72 546.362C739.154 546.371 739.575 546.209 739.89 545.91L753.66 532.91C753.978 532.611 754.166 532.2 754.183 531.764C754.2 531.327 754.044 530.902 753.75 530.58L739.9 515.45C739.748 515.282 739.564 515.148 739.358 515.054C739.152 514.961 738.93 514.911 738.704 514.907C738.478 514.903 738.253 514.946 738.045 515.033C737.836 515.119 737.647 515.248 737.49 515.41ZM759.32 537.24L745.55 551.24C745.247 551.55 745.078 551.966 745.078 552.4C745.078 552.834 745.247 553.25 745.55 553.56L759.41 567.77C759.719 568.075 760.136 568.247 760.57 568.247C761.004 568.247 761.421 568.075 761.73 567.77L775.5 554.77C775.818 554.473 776.005 554.063 776.022 553.628C776.039 553.194 775.884 552.771 775.59 552.45L761.72 537.29C761.568 537.125 761.385 536.992 761.181 536.899C760.976 536.807 760.755 536.757 760.531 536.752C760.306 536.747 760.084 536.788 759.875 536.872C759.667 536.956 759.478 537.081 759.32 537.24ZM780.48 558.4L766.7 572.34C766.397 572.65 766.227 573.066 766.227 573.5C766.227 573.934 766.397 574.35 766.7 574.66L780.56 588.86C780.869 589.165 781.286 589.337 781.72 589.337C782.154 589.337 782.571 589.165 782.88 588.86L796.65 575.86C796.968 575.563 797.155 575.153 797.172 574.719C797.189 574.284 797.034 573.861 796.74 573.54L782.9 558.44C782.749 558.269 782.564 558.132 782.358 558.037C782.151 557.942 781.926 557.891 781.699 557.887C781.471 557.883 781.245 557.927 781.035 558.015C780.826 558.103 780.636 558.235 780.48 558.4ZM822.56 558.61L808.79 572.61C808.485 572.919 808.313 573.336 808.313 573.77C808.313 574.204 808.485 574.621 808.79 574.93L822.66 589.14C822.969 589.445 823.386 589.617 823.82 589.617C824.254 589.617 824.671 589.445 824.98 589.14L838.75 576.14C839.064 575.84 839.248 575.43 839.263 574.996C839.278 574.563 839.123 574.14 838.83 573.82L824.96 558.66C824.809 558.495 824.625 558.362 824.421 558.269C824.216 558.177 823.995 558.127 823.771 558.122C823.546 558.117 823.324 558.158 823.115 558.242C822.907 558.326 822.718 558.451 822.56 558.61ZM843.71 579.76L829.94 593.76C829.635 594.069 829.464 594.486 829.464 594.92C829.464 595.354 829.635 595.771 829.94 596.08L843.81 610.29C844.119 610.595 844.536 610.767 844.97 610.767C845.404 610.767 845.821 610.595 846.13 610.29L859.9 597.29C860.214 596.99 860.398 596.58 860.413 596.146C860.428 595.713 860.273 595.29 859.98 594.97L846.11 579.86C845.962 579.691 845.781 579.554 845.579 579.457C845.376 579.36 845.156 579.306 844.931 579.296C844.707 579.287 844.483 579.323 844.273 579.403C844.063 579.483 843.872 579.604 843.71 579.76ZM736.56 560.01L723.56 573.14C723.153 573.555 722.924 574.113 722.924 574.695C722.924 575.277 723.153 575.835 723.56 576.25L736.65 589.67C737.057 590.085 737.611 590.325 738.193 590.336C738.774 590.347 739.337 590.129 739.76 589.73L752.76 577.5C753.182 577.1 753.43 576.55 753.452 575.969C753.475 575.389 753.269 574.822 752.88 574.39L739.79 560.07C739.586 559.847 739.339 559.669 739.063 559.544C738.788 559.42 738.49 559.353 738.188 559.348C737.886 559.342 737.586 559.398 737.306 559.512C737.026 559.626 736.772 559.795 736.56 560.01ZM757.71 581.16L744.71 594.29C744.303 594.705 744.074 595.263 744.074 595.845C744.074 596.427 744.303 596.985 744.71 597.4L757.83 610.86C758.243 611.255 758.793 611.476 759.365 611.476C759.937 611.476 760.487 611.255 760.9 610.86L773.9 598.63C774.324 598.231 774.574 597.681 774.596 597.1C774.619 596.518 774.412 595.951 774.02 595.52L760.9 581.22C760.696 581.003 760.451 580.83 760.18 580.709C759.908 580.589 759.615 580.524 759.318 580.518C759.02 580.513 758.725 580.567 758.449 580.677C758.173 580.787 757.922 580.951 757.71 581.16ZM778.9 602.31L765.9 615.44C765.493 615.855 765.264 616.413 765.264 616.995C765.264 617.577 765.493 618.135 765.9 618.55L778.99 631.97C779.396 632.388 779.95 632.629 780.533 632.64C781.115 632.651 781.678 632.432 782.1 632.03L795.1 619.8C795.526 619.402 795.778 618.852 795.8 618.27C795.823 617.687 795.614 617.119 795.22 616.69L782.13 602.37C781.927 602.146 781.68 601.966 781.404 601.841C781.129 601.716 780.83 601.649 780.528 601.643C780.226 601.637 779.925 601.694 779.645 601.808C779.365 601.923 779.112 602.094 778.9 602.31ZM800.43 623.04L786.66 637.04C786.357 637.35 786.187 637.767 786.188 638.2C786.188 638.634 786.357 639.05 786.66 639.36L800.53 653.57C800.834 653.88 801.246 654.058 801.68 654.068C802.113 654.077 802.533 653.916 802.85 653.62L816.62 640.62C816.936 640.322 817.122 639.911 817.137 639.476C817.152 639.042 816.995 638.619 816.7 638.3L802.84 623.14C802.692 622.97 802.51 622.831 802.307 622.734C802.103 622.636 801.882 622.58 801.657 622.571C801.431 622.562 801.206 622.599 800.995 622.679C800.784 622.76 800.592 622.883 800.43 623.04ZM585.1 366.38L573.28 378.45C572.951 378.778 572.69 379.168 572.512 379.597C572.334 380.026 572.242 380.486 572.242 380.95C572.242 381.415 572.334 381.874 572.512 382.303C572.69 382.732 572.951 383.122 573.28 383.45L606.28 416.12C606.932 416.763 607.807 417.129 608.723 417.14C609.638 417.151 610.523 416.807 611.19 416.18L623.51 404.59C623.856 404.265 624.133 403.873 624.325 403.438C624.516 403.004 624.618 402.535 624.625 402.06C624.631 401.585 624.542 401.114 624.363 400.674C624.183 400.234 623.917 399.835 623.58 399.5L590.08 366.36C589.416 365.704 588.519 365.338 587.586 365.342C586.653 365.346 585.759 365.719 585.1 366.38ZM801.11 579.72L786.66 594.47C786.356 594.783 786.186 595.203 786.186 595.64C786.186 596.077 786.356 596.497 786.66 596.81L822.27 632.06C822.578 632.359 822.991 632.527 823.42 632.527C823.85 632.527 824.262 632.359 824.57 632.06L839.63 617.89C839.79 617.736 839.918 617.551 840.005 617.347C840.092 617.142 840.137 616.922 840.137 616.7C840.137 616.478 840.092 616.258 840.005 616.053C839.918 615.849 839.79 615.664 839.63 615.51L803.4 579.67C803.086 579.38 802.672 579.224 802.245 579.233C801.818 579.242 801.411 579.417 801.11 579.72ZM650.9 474.26L637.11 487.92C636.956 488.073 636.834 488.254 636.751 488.454C636.667 488.654 636.624 488.868 636.624 489.085C636.624 489.302 636.667 489.516 636.751 489.716C636.834 489.916 636.956 490.098 637.11 490.25L713.9 568.96C714.21 569.263 714.627 569.433 715.06 569.433C715.494 569.433 715.91 569.263 716.22 568.96L731.22 554.81C731.379 554.656 731.505 554.472 731.591 554.268C731.677 554.065 731.722 553.846 731.722 553.625C731.722 553.404 731.677 553.185 731.591 552.982C731.505 552.778 731.379 552.594 731.22 552.44L653.22 474.23C652.906 473.931 652.488 473.767 652.054 473.772C651.62 473.778 651.206 473.953 650.9 474.26Z" fill="#464A5F"/>
<path opacity="0.1" d="M596.73 483.86L536.1 544.09C534.419 545.762 533.466 548.029 533.448 550.399C533.429 552.77 534.346 555.052 536 556.75L648.14 671.91C648.967 672.76 649.954 673.438 651.044 673.905C652.134 674.372 653.305 674.619 654.491 674.632C655.677 674.645 656.853 674.424 657.953 673.981C659.053 673.538 660.054 672.881 660.9 672.05L723.33 610.64C724.175 609.807 724.847 608.815 725.308 607.721C725.768 606.627 726.007 605.452 726.012 604.265C726.017 603.078 725.787 601.902 725.335 600.805C724.883 599.707 724.219 598.71 723.38 597.87L609.44 483.86C607.753 482.178 605.467 481.233 603.085 481.233C600.702 481.233 598.417 482.178 596.73 483.86Z" fill="black"/>
<path d="M596.73 481.39L536.1 541.67C534.419 543.342 533.466 545.609 533.448 547.979C533.429 550.35 534.346 552.632 536 554.33L648.14 669.49C648.967 670.34 649.954 671.018 651.044 671.485C652.134 671.952 653.305 672.199 654.491 672.212C655.677 672.225 656.853 672.004 657.953 671.561C659.053 671.118 660.054 670.461 660.9 669.63L723.33 608.22C724.175 607.387 724.847 606.395 725.308 605.301C725.768 604.207 726.007 603.032 726.012 601.845C726.017 600.658 725.787 599.482 725.335 598.385C724.883 597.287 724.219 596.29 723.38 595.45L609.44 481.45C607.761 479.76 605.48 478.804 603.097 478.793C600.715 478.782 598.425 479.716 596.73 481.39Z" fill="#939498"/>
<path d="M654.97 165.32L639.62 272.64L924.04 556.15L938.52 449.77C938.909 446.898 938.629 443.974 937.701 441.228C936.772 438.482 935.222 435.988 933.17 433.94L661.28 163.2C660.791 162.712 660.175 162.37 659.502 162.213C658.828 162.055 658.125 162.089 657.47 162.309C656.814 162.529 656.233 162.927 655.792 163.459C655.35 163.991 655.066 164.635 654.97 165.32Z" fill="#D417B6"/>
<path opacity="0.1" d="M295.09 685.53C307.853 685.53 318.2 684.111 318.2 682.36C318.2 680.609 307.853 679.19 295.09 679.19C282.327 679.19 271.98 680.609 271.98 682.36C271.98 684.111 282.327 685.53 295.09 685.53Z" fill="#D417B6"/>
<path opacity="0.1" d="M206.55 694.51C219.313 694.51 229.66 693.091 229.66 691.34C229.66 689.589 219.313 688.17 206.55 688.17C193.787 688.17 183.44 689.589 183.44 691.34C183.44 693.091 193.787 694.51 206.55 694.51Z" fill="#D417B6"/>
<path opacity="0.1" d="M102.27 682.36C115.033 682.36 125.38 680.941 125.38 679.19C125.38 677.439 115.033 676.02 102.27 676.02C89.5067 676.02 79.16 677.439 79.16 679.19C79.16 680.941 89.5067 682.36 102.27 682.36Z" fill="#D417B6"/>
<path opacity="0.1" d="M241.99 719.16C251.064 719.16 258.42 718.148 258.42 716.9C258.42 715.652 251.064 714.64 241.99 714.64C232.916 714.64 225.56 715.652 225.56 716.9C225.56 718.148 232.916 719.16 241.99 719.16Z" fill="#D417B6"/>
<path opacity="0.1" d="M150.1 716.9C159.174 716.9 166.53 715.888 166.53 714.64C166.53 713.392 159.174 712.38 150.1 712.38C141.026 712.38 133.67 713.392 133.67 714.64C133.67 715.888 141.026 716.9 150.1 716.9Z" fill="#D417B6"/>
<path d="M206.06 690.63C206.06 690.63 238.47 584.37 200.98 541.86C172.98 510.02 141.11 513.86 126.85 517.77C123.163 518.752 119.733 520.523 116.798 522.961C113.862 525.399 111.492 528.446 109.85 531.89C104.85 542.65 105.77 560.1 140.95 580.47C199.87 614.58 203.53 661.37 203.53 661.37L206.06 690.63Z" fill="#D417B6"/>
<path d="M131.9 532.79C131.9 532.79 227.46 562.66 206.04 690.63M187.73 543.5C187.73 543.5 174.58 552.36 178.73 565.69M141.51 551.39C141.51 551.39 149.51 543.21 159.34 547.72M179.28 592.54C179.28 592.54 193.4 585.37 197.06 594.35M214.23 607.48C214.23 607.48 203.62 606.64 203.43 611.71" stroke="#565987" stroke-miterlimit="10"/>
<path d="M207.37 691.48C207.37 691.48 169.37 614.25 158.97 615.94C154.02 616.74 151.74 621.61 150.71 626.51C149.432 632.839 150.152 639.408 152.77 645.31C158.16 657.67 172.63 681.14 207.37 691.48Z" fill="#D417B6"/>
<path d="M159.26 630.59C159.26 630.59 199.1 688.38 206.8 690.91M155.59 639.61H164.89M166.73 660.75L181.31 661.37M175.6 643.84L174.02 651.43M191.11 666.95L190.82 673.85" stroke="#565987" stroke-miterlimit="10"/>
<path d="M206.24 691.48C206.24 691.48 244.24 614.25 254.63 615.94C259.63 616.74 261.87 621.61 262.9 626.51C264.18 632.839 263.456 639.41 260.83 645.31C255.45 657.67 240.98 681.14 206.24 691.48Z" fill="#D417B6"/>
<path d="M254.35 630.59C254.35 630.59 214.5 688.38 206.8 690.91M258.01 639.61H248.71M246.87 660.75L232.29 661.37M238 643.84L239.58 651.43M222.5 666.95L222.78 673.85" stroke="#565987" stroke-miterlimit="10"/>
<path d="M141.05 709.51C140.015 708.669 139.261 707.531 138.89 706.25C138.724 705.607 138.783 704.927 139.058 704.323C139.333 703.719 139.806 703.227 140.4 702.93C141.79 702.4 143.27 703.36 144.4 704.33C145.53 705.3 146.82 706.41 148.29 706.21C147.533 705.525 146.966 704.656 146.645 703.687C146.324 702.717 146.26 701.681 146.46 700.68C146.521 700.263 146.698 699.871 146.97 699.55C147.74 698.73 149.13 699.08 150.05 699.73C152.99 701.79 153.8 705.73 153.82 709.36C153.984 708.033 154.001 706.691 153.87 705.36C153.815 704.698 153.921 704.032 154.181 703.421C154.441 702.809 154.845 702.27 155.36 701.85C156.058 701.479 156.84 701.297 157.63 701.32C158.281 701.218 158.946 701.254 159.582 701.426C160.218 701.598 160.81 701.903 161.32 702.32C162.44 703.52 162.15 705.52 161.17 706.84C160.086 708.072 158.797 709.108 157.36 709.9C156.264 710.548 155.331 711.437 154.63 712.5C154.55 712.647 154.483 712.801 154.43 712.96H146.17C144.316 712.045 142.594 710.884 141.05 709.51ZM285.72 678.41C284.684 677.567 283.927 676.431 283.55 675.15C283.386 674.507 283.446 673.828 283.72 673.224C283.995 672.62 284.468 672.128 285.06 671.83C286.45 671.3 287.93 672.26 289.06 673.23C290.19 674.2 291.47 675.31 292.94 675.1C292.184 674.414 291.618 673.545 291.298 672.576C290.977 671.607 290.912 670.571 291.11 669.57C291.177 669.158 291.354 668.771 291.62 668.45C292.39 667.62 293.78 667.98 294.71 668.63C297.64 670.69 298.46 674.63 298.47 678.25C298.638 676.923 298.658 675.581 298.53 674.25C298.467 673.587 298.57 672.919 298.83 672.306C299.09 671.693 299.499 671.155 300.02 670.74C300.715 670.362 301.499 670.179 302.29 670.21C302.939 670.11 303.602 670.148 304.236 670.32C304.87 670.492 305.461 670.795 305.97 671.21C307.09 672.41 306.8 674.42 305.83 675.74C304.738 676.952 303.446 677.966 302.01 678.74C300.924 679.397 299.995 680.284 299.29 681.34C299.205 681.488 299.138 681.646 299.09 681.81H290.82C288.976 680.909 287.261 679.766 285.72 678.41ZM237.5 709.51C236.465 708.669 235.711 707.531 235.34 706.25C235.174 705.607 235.233 704.927 235.508 704.323C235.783 703.719 236.256 703.227 236.85 702.93C238.24 702.4 239.72 703.36 240.85 704.33C241.98 705.3 243.27 706.41 244.74 706.21C243.983 705.525 243.416 704.656 243.095 703.687C242.774 702.717 242.71 701.681 242.91 700.68C242.971 700.263 243.148 699.871 243.42 699.55C244.19 698.73 245.58 699.08 246.5 699.73C249.43 701.79 250.25 705.73 250.27 709.36C250.434 708.033 250.451 706.691 250.32 705.36C250.265 704.7 250.371 704.037 250.629 703.428C250.887 702.818 251.289 702.28 251.8 701.86C252.498 701.489 253.28 701.307 254.07 701.33C254.721 701.228 255.386 701.264 256.022 701.436C256.658 701.608 257.25 701.913 257.76 702.33C258.88 703.53 258.59 705.53 257.61 706.85C256.526 708.082 255.237 709.117 253.8 709.91C252.704 710.558 251.771 711.447 251.07 712.51C250.99 712.657 250.923 712.811 250.87 712.97H242.61C240.759 712.051 239.041 710.887 237.5 709.51ZM100.77 646.64C100.77 646.64 97.67 650.69 102.2 656.8C106.73 662.91 110.46 668.08 108.95 671.89C108.95 671.89 102.12 660.53 96.56 660.38C91 660.23 94.65 653.47 100.77 646.64Z" fill="#D417B6"/>
<path opacity="0.1" d="M100.77 646.64C100.502 647.032 100.29 647.459 100.14 647.91C94.71 654.28 91.82 660.23 97.04 660.38C101.89 660.51 107.72 669.2 109.11 671.38C109.067 671.55 109.014 671.717 108.95 671.88C108.95 671.88 102.12 660.52 96.56 660.37C91 660.22 94.65 653.47 100.77 646.64Z" fill="black"/>
<path d="M95.01 651.8C95.01 653.23 95.17 654.38 95.37 654.38C95.57 654.38 95.73 653.23 95.73 651.8C95.73 650.37 95.53 651.05 95.33 651.05C95.13 651.05 95.01 650.37 95.01 651.8Z" fill="#FFD037"/>
<path d="M93.04 653.5C94.29 654.18 95.38 654.6 95.47 654.42C95.56 654.24 94.63 653.56 93.38 652.87C92.13 652.18 92.62 652.69 92.53 652.87C92.44 653.05 91.79 652.86 93.04 653.5Z" fill="#FFD037"/>
<path d="M117.13 646.64C117.13 646.64 120.22 650.69 115.7 656.8C111.18 662.91 107.44 668.08 108.95 671.89C108.95 671.89 115.78 660.53 121.34 660.38C126.9 660.23 123.24 653.47 117.13 646.64Z" fill="#D417B6"/>
<path opacity="0.1" d="M117.13 646.64C117.398 647.032 117.61 647.459 117.76 647.91C123.18 654.28 126.07 660.23 120.86 660.38C116 660.51 110.18 669.2 108.78 671.38C108.826 671.55 108.883 671.717 108.95 671.88C108.95 671.88 115.78 660.52 121.34 660.37C126.9 660.22 123.24 653.47 117.13 646.64Z" fill="black"/>
<path d="M122.9 651.8C122.9 653.23 122.74 654.38 122.55 654.38C122.36 654.38 122.19 653.23 122.19 651.8C122.19 650.37 122.39 651.05 122.59 651.05C122.79 651.05 122.9 650.37 122.9 651.8Z" fill="#FFD037"/>
<path d="M124.9 653.5C123.65 654.18 122.56 654.6 122.46 654.42C122.36 654.24 123.31 653.56 124.56 652.87C125.81 652.18 125.32 652.69 125.41 652.87C125.5 653.05 126.11 652.86 124.9 653.5Z" fill="#FFD037"/>
<path d="M121.9 671.36C121.9 671.36 113.24 671.09 110.63 669.24C108.02 667.39 97.31 665.16 96.63 668.14C95.95 671.12 83.63 682.96 93.4 683.04C103.17 683.12 116.11 681.52 118.72 679.93C121.33 678.34 121.9 671.36 121.9 671.36Z" fill="#A8A8A8"/>
<path opacity="0.2" d="M93.25 682C103.03 682.08 115.97 680.48 118.57 678.89C120.57 677.68 121.34 673.35 121.57 671.35H121.9C121.9 671.35 121.35 678.35 118.75 679.92C116.15 681.49 103.2 683.11 93.43 683.03C90.61 683.03 89.63 682.03 89.68 680.52C90.08 681.42 91.15 681.98 93.25 682Z" fill="black"/>
<path d="M172.46 334.08C172.3 338.28 175.9 343.86 175.9 343.86C177 346.51 190.49 358.79 190.49 358.79L200.49 365.47C198.47 366.961 196.352 368.314 194.15 369.52C189.28 372.01 186.62 380.25 186.62 380.25C186.62 380.25 179.24 397.98 194.15 400.47L194.43 400.52L195.77 401.97C199.07 405.53 203.1 409.78 204.5 410.73C207.01 412.44 214.7 425.35 214.7 425.35C214.7 425.35 222.85 438.73 233.7 439.35C244.55 439.97 244.52 427.53 243.7 426.75C243.374 426.229 243.147 425.653 243.03 425.05C245.62 429.22 249.15 434.7 250.29 435.46C252.17 436.7 258.29 446.46 258.29 446.46C258.29 446.46 265.98 464.03 267.23 465.9C268.48 467.77 270.68 477.1 270.68 477.1C270.68 477.1 275.08 490 277.12 491.72C279.16 493.44 280.25 499.65 280.25 499.65C280.25 499.65 286.68 508.98 287.78 510.53C289.067 512.793 290.219 515.131 291.23 517.53C291.23 517.53 294.68 523.13 294.68 525.31C294.68 527.49 301.9 531.21 301.9 531.21C301.9 531.21 307.08 537.28 310.06 538.37C313.04 539.46 315.86 546.61 316.33 546.14C316.607 546.008 316.913 545.946 317.22 545.96L318.44 547.18C323.2 551.92 332.71 561.37 335.15 563.56C338.45 566.56 345.98 566.98 352.25 565.74C355.47 565.1 359.39 562.05 362.44 559.23C363.13 558.585 363.682 557.806 364.063 556.942C364.445 556.078 364.647 555.145 364.658 554.201C364.669 553.256 364.489 552.319 364.129 551.446C363.768 550.573 363.234 549.781 362.56 549.12C359.56 546.23 356.09 543.06 354.56 542.57C351.74 541.63 343.74 536.04 339.98 531.37C337.98 528.94 334.47 526.63 331.52 524.98L331.16 524.77C330.709 523.059 330.405 521.313 330.25 519.55C330.25 519.55 335.43 507.89 332.6 507.27C329.77 506.65 319.11 488.14 319.11 488.14C318.96 474.14 306.11 462.32 306.11 462.32C306.11 462.32 299.68 447.08 297.8 443.82C297.241 442.993 296.942 442.018 296.942 441.02C296.942 440.022 297.241 439.047 297.8 438.22C297.8 438.22 294.19 435.42 293.57 434.02C292.95 432.62 289.96 422.02 289.96 422.02C289.96 422.02 286.35 415.64 286.19 412.69C286.03 409.74 279 401.51 279 401.51C279 401.51 276.15 387.65 273 385.16C272.39 384.68 272.48 382.85 273 380.22L273.15 380.06L273.63 379.59L273.77 379.45C275.211 378.028 276.567 376.522 277.83 374.94L277.89 374.86C278.09 374.61 278.28 374.37 278.46 374.12C283.01 367.9 285.83 353.12 285.83 353.12C285.83 353.12 286.73 352.7 287.9 352.06C289.544 351.239 291.065 350.192 292.42 348.95C292.485 348.878 292.539 348.797 292.58 348.71C292.585 348.684 292.585 348.656 292.58 348.63C292.611 348.569 292.638 348.505 292.66 348.44C292.664 348.403 292.664 348.367 292.66 348.33C292.666 348.257 292.666 348.183 292.66 348.11V347.64C292.66 347.51 292.66 347.38 292.61 347.24C292.609 347.223 292.609 347.207 292.61 347.19C292.61 347.07 292.56 346.95 292.53 346.82V346.7C292.53 346.59 292.47 346.48 292.43 346.36C292.433 346.317 292.433 346.273 292.43 346.23L292.31 345.86C292.306 345.83 292.306 345.8 292.31 345.77C292.12 345.27 291.89 344.77 291.63 344.23L291.36 343.72C290.87 342.79 290.36 341.88 289.82 341.09L289.74 340.97C290.84 337.87 292.97 332.41 294.95 330.45C297.77 327.65 293.38 312.72 293.38 312.72C293.38 312.72 292.44 302.15 291.18 299.04C289.92 295.93 291.18 295.48 290.18 292.82C288.97 289.82 288.09 290.02 289.65 283.18C290.24 280.6 291.15 277.76 291.97 275.11L292.97 276.03C298.77 281.5 307.88 288.62 307.88 288.62C307.88 288.62 325.76 304.79 327.33 305.26C328.9 305.73 333.61 321.59 333.61 321.59C333.61 321.59 332.51 347.87 346.94 348.96C353.07 349.42 355.67 344.68 356.61 339.09C357.305 334.752 357.032 330.313 355.81 326.093C354.587 321.873 352.446 317.975 349.54 314.68L340.9 304.86L333.21 291.18C328.315 283.457 324.191 275.271 320.9 266.74C317.406 258.381 312.28 250.803 305.82 244.45L305.2 243.84L306 243.1C306 243.1 304.74 232.84 303.8 231.6C302.86 230.36 299.41 223.2 299.41 221.6C299.41 220 297.21 219.74 295.96 217.87C295.96 217.87 293.76 213.52 291.72 212.87C291.347 212.725 291.007 212.508 290.72 212.23C287.143 209.068 282.654 207.124 277.9 206.68L276.65 206.56C273.87 206.434 271.085 206.474 268.31 206.68H268.24C266.11 206.04 264.5 204.38 262.85 202.9C260.193 200.523 257.246 198.49 254.08 196.85C250.83 195.16 247.15 193.85 243.52 194.47C240.68 194.93 238.14 196.47 235.37 197.28C231.43 198.39 226.59 198.16 224.11 201.39C222.92 202.93 222.58 204.98 221.47 206.57C219.89 208.83 216.99 209.88 215.36 212.11C214.269 213.733 213.771 215.683 213.95 217.63C213.895 219.206 214.084 220.781 214.51 222.3C214.925 223.605 215.23 224.943 215.42 226.3C215.398 226.522 215.361 226.743 215.31 226.96C215.09 227.96 214.58 228.8 214.38 229.77C214.279 230.297 214.262 230.837 214.33 231.37C214.03 233.76 215.57 236.03 216.61 238.25C217.415 239.984 217.944 241.833 218.18 243.73C215.578 244.5 213.04 245.473 210.59 246.64C207.32 248.22 204.03 250.36 202.15 253.1C199.09 257.403 195.258 261.102 190.85 264.01C189.493 267.35 188.341 270.77 187.4 274.25C186.46 278.25 185.52 284.82 182.7 288.25C179.88 291.68 178.58 301.86 178.58 301.86C178.58 301.86 174.81 307.92 174.81 309.17C174.81 310.42 174.34 316.17 174.81 317.87C175.087 318.404 175.456 318.885 175.9 319.29L175.62 320.29C174.32 324.86 172.56 331.45 172.46 334.08ZM260.9 264.03C260.82 264.38 260.73 264.71 260.62 265.03C260.62 264.71 260.67 264.4 260.69 264.08L260.9 264.03ZM225.16 396.95L224.66 396.49L224.42 396.27C224.42 396.15 224.48 396.03 224.51 395.89L225.16 396.95ZM199.16 333.3L199.36 332.93L200.1 331.59L206.1 326.69L206.87 327.39C206.87 327.39 206.24 333.92 204.68 333.61C204.32 333.54 204.16 335.04 204.12 337.39C201.29 334.97 199.13 333.3 199.13 333.3H199.16Z" fill="url(#paint0_linear_66_762)"/>
<path d="M253.31 212.17C253.31 212.17 271.98 210.49 276.42 210.95L277.63 211.06C282.263 211.532 286.624 213.469 290.08 216.59C290.368 216.864 290.708 217.078 291.08 217.22C293.08 217.83 295.21 222.12 295.21 222.12C295.21 222.12 290.47 259.61 290.47 260.07C290.47 260.53 280.67 277.51 280.67 277.51L271.18 281.19L254.81 283.5L254.35 276.44C254.35 276.44 262.23 272.12 261.35 263.19C260.47 254.26 253.31 212.17 253.31 212.17Z" fill="#464353"/>
<path d="M262.49 256.7C262.49 256.7 258.49 274.76 262.49 280.57C266.49 286.38 223.01 271.09 223.01 271.09L215.01 256.7C215.01 256.7 218.01 254.57 221.39 251.82C226.15 247.99 231.85 242.97 231.85 240.82C231.9 237.11 262.49 256.7 262.49 256.7Z" fill="#ECB4B6"/>
<path opacity="0.1" d="M262.49 256.7C262.49 256.7 258.49 274.76 262.49 280.57C266.49 286.38 223.01 271.09 223.01 271.09L215.01 256.7C215.01 256.7 218.01 254.57 221.39 251.82C226.15 247.99 231.85 242.97 231.85 240.82C231.9 237.11 262.49 256.7 262.49 256.7Z" fill="black"/>
<path opacity="0.1" d="M253.31 268.67C268.017 268.67 279.94 256.747 279.94 242.04C279.94 227.333 268.017 215.41 253.31 215.41C238.603 215.41 226.68 227.333 226.68 242.04C226.68 256.747 238.603 268.67 253.31 268.67Z" fill="black"/>
<path d="M253.31 267.44C268.017 267.44 279.94 255.517 279.94 240.81C279.94 226.103 268.017 214.18 253.31 214.18C238.603 214.18 226.68 226.103 226.68 240.81C226.68 255.517 238.603 267.44 253.31 267.44Z" fill="#ECB4B6"/>
<path d="M287.74 273.86C287.84 274.86 289.74 276.93 292.32 279.38C297.98 284.76 306.87 291.77 306.87 291.77C306.87 291.77 324.32 307.68 325.87 308.14C327.42 308.6 331.99 324.21 331.99 324.21C331.99 324.21 330.92 350.07 344.99 351.14C350.99 351.59 353.51 346.94 354.43 341.43C355.107 337.169 354.841 332.812 353.651 328.665C352.46 324.518 350.374 320.683 347.54 317.43L339.18 307.7L331.68 294.23C326.872 286.646 322.823 278.607 319.59 270.23C316.206 261.992 311.212 254.513 304.9 248.23C303.33 246.67 302.32 245.84 302.32 245.84L295.32 247.98C295.32 247.98 287.44 270.78 287.74 273.86Z" fill="#ECB4B6"/>
<path d="M314.52 543.49L317.2 546.18C321.84 550.85 331.12 560.18 333.5 562.3C336.71 565.21 344.06 565.67 350.18 564.44C353.32 563.82 357.18 560.81 360.12 558.04C360.8 557.405 361.344 556.639 361.719 555.788C362.094 554.937 362.293 554.018 362.303 553.088C362.313 552.158 362.135 551.236 361.779 550.377C361.422 549.518 360.895 548.74 360.23 548.09C357.33 545.25 353.93 542.09 352.47 541.64C349.72 540.72 341.91 535.22 338.24 530.64C336.33 528.25 332.87 525.98 330 524.35C327.36 522.86 325.23 521.92 325.23 521.92L314.52 543.49Z" fill="#C17174"/>
<path opacity="0.1" d="M318.3 543.49C318.3 543.49 319.19 544.4 320.57 545.78C324.52 549.78 332.41 557.66 334.44 559.49C337.17 561.96 343.44 562.35 348.62 561.31C350.96 560.84 353.75 558.83 356.11 556.75C356.827 556.122 357.407 555.352 357.811 554.489C358.216 553.626 358.437 552.688 358.461 551.735C358.484 550.782 358.309 549.834 357.948 548.952C357.586 548.07 357.046 547.272 356.36 546.61C354.1 544.44 351.68 542.29 350.57 541.92C348.23 541.14 341.57 536.45 338.47 532.55C336.462 530.377 334.094 528.567 331.47 527.2C329.23 525.93 327.42 525.13 327.42 525.13L318.3 543.49Z" fill="black"/>
<path d="M192.9 398.1C192.9 398.1 195 400.47 197.55 403.25C200.76 406.76 204.7 410.94 206.06 411.87C208.51 413.56 216.01 426.26 216.01 426.26C216.01 426.26 224.01 439.42 234.53 440.03C245.05 440.64 245.09 428.4 244.32 427.64C243.55 426.88 242.49 419.98 240.96 414.93C239.8 411.11 230.31 402.03 225.77 397.84C224.31 396.49 223.36 395.65 223.36 395.65L192.9 398.1Z" fill="#C17174"/>
<path opacity="0.1" d="M195.15 399.86C195.15 399.86 197.05 402.02 199.38 404.56C202.31 407.76 205.9 411.56 207.14 412.42C209.38 413.96 216.21 425.54 216.21 425.54C216.21 425.54 223.47 437.54 233.1 438.09C242.73 438.64 242.72 427.49 242.03 426.79C241.34 426.09 240.35 419.79 238.96 415.21C237.9 411.73 229.25 403.45 225.11 399.63C223.78 398.4 222.91 397.63 222.91 397.63L195.15 399.86Z" fill="black"/>
<path opacity="0.1" d="M192.9 398.1C192.9 398.1 195 400.47 197.55 403.25C210.99 405.25 217.24 403 217.24 403C217.24 403 223.51 400.24 224.89 400.09C225.24 400.09 225.49 399.18 225.77 397.84C224.31 396.49 223.36 395.65 223.36 395.65L192.9 398.1Z" fill="black"/>
<path d="M209.09 361.99C209.09 361.99 200.67 368.86 195.9 371.32C191.13 373.78 188.58 381.86 188.58 381.86C188.58 381.86 181.39 399.31 195.92 401.75C210.45 404.19 217.2 401.75 217.2 401.75C217.2 401.75 223.47 399 224.85 398.85C226.23 398.7 226.22 385.53 231.27 381.55C236.32 377.57 247.95 368.55 247.95 368.55L209.09 361.99Z" fill="#5E5A6B"/>
<path opacity="0.1" d="M209.09 361.99C209.09 361.99 200.67 368.86 195.9 371.32C191.13 373.78 188.58 381.86 188.58 381.86C188.58 381.86 181.39 399.31 195.92 401.75C210.45 404.19 217.2 401.75 217.2 401.75C217.2 401.75 223.47 399 224.85 398.85C226.23 398.7 226.22 385.53 231.27 381.55C236.32 377.57 247.95 368.55 247.95 368.55L209.09 361.99Z" fill="black"/>
<path d="M287.73 341.02C287.73 341.02 293.73 349.19 291.87 351.15C290.01 353.11 285.45 355.25 285.45 355.25C285.45 355.25 282.69 369.79 278.25 375.91C273.81 382.03 265.1 388.77 265.1 388.77L271.21 354.64L287.73 341.02Z" fill="#5E5A6B"/>
<path opacity="0.1" d="M265.11 388.77C267.833 386.619 270.443 384.33 272.93 381.91C274.864 380.059 276.644 378.052 278.25 375.91C282.69 369.79 285.45 355.25 285.45 355.25C285.45 355.25 290.04 353.11 291.87 351.15C292.99 349.96 291.22 346.49 289.66 343.94C288.66 342.28 287.74 341.02 287.74 341.02L279.07 348.16L271.21 354.64L268.9 367.86L265.11 388.77ZM314.52 543.49L317.2 546.18C318.89 546.18 321.41 546.39 321.41 546.39C321.41 546.39 333.8 531.54 331.81 528.94C330.91 527.537 330.294 525.971 330 524.33C327.36 522.84 325.23 521.9 325.23 521.9L314.52 543.49Z" fill="black"/>
<path d="M219.95 386.78C219.95 389.38 240.76 421.21 240.76 421.21C240.76 421.21 248.87 434.98 250.71 436.21C252.55 437.44 258.51 447.07 258.51 447.07C258.51 447.07 266.01 464.36 267.24 466.2C268.47 468.04 270.6 477.2 270.6 477.2C270.6 477.2 274.89 489.9 276.88 491.58C278.87 493.26 279.94 499.39 279.94 499.39C279.94 499.39 286.21 508.57 287.28 510.1C288.536 512.326 289.661 514.623 290.65 516.98C290.65 516.98 294.02 522.49 294.02 524.64C294.02 526.79 301.02 530.45 301.02 530.45C301.02 530.45 306.02 536.45 308.97 537.45C311.92 538.45 314.64 545.56 315.09 545.1C315.54 544.64 320.76 545.1 320.76 545.1C320.76 545.1 333.15 530.26 331.16 527.66C329.17 525.06 328.71 518.93 328.71 518.93C328.71 518.93 333.71 507.46 331.01 506.85C328.31 506.24 317.9 488.08 317.9 488.08C317.75 474.31 305.2 462.68 305.2 462.68C305.2 462.68 298.92 447.68 297.09 444.47C296.543 443.655 296.25 442.696 296.25 441.715C296.25 440.734 296.543 439.775 297.09 438.96C297.09 438.96 293.57 436.21 292.96 434.83C292.35 433.45 289.44 423.05 289.44 423.05C289.44 423.05 285.92 416.77 285.76 413.86C285.6 410.95 278.76 402.86 278.76 402.86C278.76 402.86 275.98 389.23 272.92 386.78C272.32 386.3 272.42 384.51 272.92 381.91C274.33 375.06 278.82 362.68 281.92 354.57C283.69 349.93 285 346.68 285 346.68L279.08 348.16L228.68 360.76C228.68 360.76 225.95 368.09 223.55 375C221.64 380.44 219.95 385.63 219.95 386.78Z" fill="#5E5A6B"/>
<path opacity="0.1" d="M317.74 512.11C317.74 512.11 333.5 505.99 325.74 513.79C317.98 521.59 303.1 521.14 303.1 521.14L317.74 512.11ZM290.8 480.86C290.8 480.86 281.93 485.76 283.61 490.5C285.29 495.24 290.8 480.86 290.8 480.86ZM281.9 442.94C281.044 444.476 279.768 445.737 278.223 446.576C276.677 447.416 274.925 447.798 273.17 447.68C266.78 447.53 281.9 442.94 281.9 442.94ZM198.68 374.86C198.68 374.86 202.05 385.27 198.68 386.03C195.31 386.79 198.68 374.86 198.68 374.86ZM287.74 273.86C287.84 274.86 289.74 276.93 292.32 279.38C293.78 274.68 295.14 270.38 294.32 268.96C293.1 266.82 297.88 262.23 297.02 259.17C296.36 256.83 302.12 250.9 304.86 248.25C303.29 246.69 302.28 245.86 302.28 245.86L295.28 248C295.28 248 287.44 270.78 287.74 273.86ZM223.54 375C229.35 374.68 242.9 370.48 242.9 370.48C242.9 370.48 258.61 369.96 268.9 367.86C273.9 366.86 277.54 365.43 277.54 363.54C277.54 361.01 279.61 357.62 281.96 354.54C283.567 352.505 285.283 350.559 287.1 348.71C288.055 347.731 288.783 346.553 289.23 345.26C289.37 344.85 289.54 344.39 289.71 343.91C288.71 342.25 287.79 340.99 287.79 340.99L279.12 348.13L228.72 360.73C228.72 360.73 225.9 368.09 223.54 375Z" fill="black"/>
<path d="M206.79 365.05C206.79 365.05 218.11 371.78 221.48 373C224.85 374.22 242.9 368.64 242.9 368.64C242.9 368.64 277.49 367.5 277.49 361.64C277.49 357.15 284.05 349.93 287.05 346.87C288.008 345.889 288.735 344.707 289.18 343.41C290.23 340.41 292.35 334.84 294.32 332.87C297.08 330.12 292.79 315.43 292.79 315.43C292.79 315.43 291.87 305.02 290.65 301.96C289.43 298.9 290.65 298.45 289.65 295.84C288.47 292.91 287.65 293.08 289.14 286.35C290.63 279.62 294.34 271.05 293.14 268.9C291.94 266.75 296.7 262.17 295.84 259.11C294.98 256.05 305.07 246.87 305.07 246.87C305.07 246.87 303.81 236.86 302.9 235.58C301.99 234.3 298.62 227.32 298.62 225.79C298.62 224.26 296.47 223.95 295.25 222.12C294.03 220.29 279.9 269.56 279.9 269.56L259.31 274.2L258.17 274.45C258.17 274.45 246.46 275 238.86 270.78C238.86 270.78 225.73 268.64 221.44 246.91C218.159 247.734 214.97 248.886 211.92 250.35C208.73 251.9 205.53 254.01 203.69 256.7C200.721 260.931 196.991 264.573 192.69 267.44C191.368 270.727 190.242 274.089 189.32 277.51C188.41 281.51 187.49 287.92 184.73 291.29C181.97 294.66 180.73 304.75 180.73 304.75L208.32 329.86C208.32 329.86 207.71 336.29 206.18 335.98C204.65 335.67 206.79 365.05 206.79 365.05Z" fill="#464353"/>
<path opacity="0.1" d="M211.96 251.57L226.68 282.26C226.68 282.26 232.8 286.26 234.95 284.09C237.1 281.92 245.2 281.95 245.2 281.95L246.27 284.09L261.78 280.43L259.35 275.43L258.21 275.69C258.21 275.69 246.5 276.24 238.9 272.02C238.9 272.02 225.77 269.87 221.48 248.14C218.199 248.96 215.01 250.11 211.96 251.57Z" fill="black"/>
<path d="M211.96 250.35L226.68 281.03C226.68 281.03 232.8 285.03 234.95 282.87C237.1 280.71 245.2 280.73 245.2 280.73L246.27 282.87L261.78 279.2L259.35 274.2L258.21 274.45C258.21 274.45 246.5 275 238.9 270.78C238.9 270.78 225.77 268.64 221.48 246.91C218.199 247.734 215.01 248.886 211.96 250.35Z" fill="#464353"/>
<path opacity="0.1" d="M218.42 339.64C218.42 339.64 250.9 349.86 253.31 351.15C255.72 352.44 218.57 343.16 218.42 339.64ZM238.9 355.25C238.9 355.25 230.36 360 227.3 358.31C224.24 356.62 238.9 355.25 238.9 355.25ZM265.71 298.49C265.71 298.49 273.93 342.4 261.78 355.25L265.71 298.49ZM279.22 232.38C280.74 230.742 281.612 228.606 281.673 226.372C281.733 224.138 280.979 221.958 279.55 220.24C278.49 219.04 277.1 218.13 276.23 216.78C275.785 215.839 275.242 214.948 274.61 214.12C273.03 212.5 270.37 212.93 268.2 212.27C266.03 211.61 264.56 210.01 262.95 208.56C260.366 206.206 257.493 204.19 254.4 202.56C251.22 200.9 247.63 199.64 244.09 200.22C241.32 200.68 238.85 202.22 236.14 202.99C232.3 204.08 227.57 203.86 225.14 207.04C223.99 208.55 223.66 210.56 222.57 212.13C221.03 214.35 218.2 215.39 216.57 217.58C214.78 220.05 214.97 223.44 215.74 226.39C216.25 228.3 216.97 230.26 216.52 232.18C216.3 233.12 215.81 233.99 215.62 234.94C215.12 237.42 216.72 239.77 217.79 242.07C218.942 244.559 219.51 247.278 219.45 250.02C219.375 250.635 219.461 251.259 219.7 251.83C220.003 252.289 220.42 252.661 220.91 252.91L225.51 255.81C225.726 255.963 225.971 256.072 226.23 256.13C227.13 256.27 227.68 255.24 228.23 254.55C229.77 252.71 232.7 252.85 234.87 253.89C237.04 254.93 238.82 256.64 241 257.63C246.11 259.96 252 257.89 257.53 256.82C259.424 256.547 261.293 256.126 263.12 255.56C264.843 254.861 266.485 253.979 268.02 252.93C269.577 252.054 270.99 250.944 272.21 249.64C272.871 248.922 273.345 248.051 273.587 247.105C273.83 246.159 273.834 245.168 273.6 244.22C273.15 242.61 271.71 241.16 272 239.37C272.58 236.27 277.21 234.42 279.22 232.38Z" fill="black"/>
<path d="M279.22 231.16C280.741 229.52 281.613 227.383 281.674 225.147C281.735 222.911 280.98 220.73 279.55 219.01C278.49 217.82 277.1 216.9 276.23 215.56C275.782 214.617 275.24 213.723 274.61 212.89C273.03 211.28 270.37 211.71 268.2 211.05C266.03 210.39 264.56 208.78 262.95 207.33C260.369 204.972 257.495 202.956 254.4 201.33C251.22 199.67 247.63 198.41 244.09 198.99C241.32 199.45 238.85 200.99 236.14 201.76C232.3 202.85 227.57 202.62 225.14 205.76C223.99 207.28 223.66 209.29 222.57 210.86C221.03 213.08 218.2 214.12 216.57 216.31C214.78 218.78 214.97 222.17 215.74 225.12C216.25 227.02 216.97 228.99 216.52 230.91C216.3 231.85 215.81 232.72 215.62 233.67C215.12 236.15 216.72 238.5 217.79 240.79C218.977 243.311 219.562 246.074 219.5 248.86C219.425 249.478 219.511 250.105 219.75 250.68C220.059 251.134 220.474 251.505 220.96 251.76L225.56 254.65C225.776 254.807 226.02 254.919 226.28 254.98C227.18 255.11 227.73 254.09 228.28 253.39C229.82 251.55 232.75 251.7 234.92 252.73C237.09 253.76 238.87 255.48 241.05 256.47C246.16 258.8 252.05 256.73 257.58 255.67C259.473 255.389 261.342 254.965 263.17 254.4C264.892 253.704 266.535 252.826 268.07 251.78C269.627 250.9 271.04 249.788 272.26 248.48C272.921 247.764 273.395 246.895 273.637 245.95C273.88 245.006 273.884 244.016 273.65 243.07C273.2 241.45 271.76 240 272.05 238.22C272.58 235.04 277.21 233.19 279.22 231.16Z" fill="#464353"/>
<path d="M174.81 336.43C174.65 340.56 178.17 346.07 178.17 346.07C179.24 348.67 192.4 360.76 192.4 360.76L202.81 367.76C202.81 367.76 216.74 376.33 220.03 377.86C221.68 378.63 223.45 381.86 224.82 385.02C226.19 388.18 227.14 391.02 227.14 391.02C230.156 390.577 232.937 389.14 235.044 386.938C237.15 384.735 238.462 381.892 238.77 378.86C239.16 374.92 239.42 371.38 239.08 371.31C238.31 371.16 229.74 364.73 229.74 364.73C229.74 364.73 219.8 358.3 216.58 351.88C213.36 345.46 200.82 335.66 200.82 335.66L201.02 335.29L201.74 333.97L203.27 328.92L179.27 318.21C179.27 318.21 178.68 320.16 177.92 322.83C176.62 327.33 174.9 333.86 174.81 336.43Z" fill="#ECB4B6"/>
<path opacity="0.1" d="M177.9 322.86C182.435 327.325 187.284 331.459 192.41 335.23C193.9 336.1 199.12 335.56 201.03 335.32L201.75 334L203.28 328.95L179.28 318.24C179.28 318.24 178.65 320.17 177.9 322.86Z" fill="black"/>
<path d="M201.74 304.29C201.74 304.29 213.98 311.64 213.37 314.85C212.76 318.06 207.57 329.16 207.57 329.16L201.74 333.98C201.74 333.98 194.24 335.05 192.4 333.98C190.56 332.91 177.56 322.2 177.1 320.52C176.64 318.84 177.1 313.17 177.1 311.95C177.1 310.73 180.77 304.75 180.77 304.75L186.13 295.27L201.74 304.29Z" fill="#464353"/>
<path opacity="0.1" d="M242.9 370.45L246.5 380.12L240.43 385.86L240.15 387.59L226.68 395.34L222.4 384.53L242.9 370.45Z" fill="black"/>
<path d="M242.9 369.84L246.5 379.5L240.43 385.25L240.15 386.98L226.68 394.73L222.4 383.92L242.9 369.84Z" fill="#5E5A6B"/>
<path opacity="0.1" d="M272.28 237.46C272.068 236.91 271.999 236.314 272.08 235.73C272.58 232.6 277.21 230.73 279.22 228.73C280.531 227.364 281.363 225.61 281.59 223.73C281.783 225.076 281.67 226.449 281.26 227.746C280.85 229.042 280.152 230.23 279.22 231.22C277.37 233.03 273.31 234.75 272.28 237.46ZM215.73 233.54C216.261 235.236 216.968 236.872 217.84 238.42C218.995 240.908 219.566 243.627 219.51 246.37C219.431 246.987 219.514 247.614 219.75 248.19C220.058 248.645 220.474 249.016 220.96 249.27L225.56 252.16C225.776 252.322 226.025 252.435 226.29 252.49C227.18 252.62 227.73 251.6 228.29 250.91C229.83 249.07 232.77 249.21 234.93 250.24C237.09 251.27 238.88 252.99 241.06 253.99C246.18 256.31 252.06 254.25 257.59 253.18C259.484 252.904 261.353 252.479 263.18 251.91C264.903 251.217 266.546 250.338 268.08 249.29C269.641 248.411 271.057 247.298 272.28 245.99C272.965 245.192 273.452 244.243 273.7 243.22C273.893 244.14 273.866 245.094 273.619 246.001C273.372 246.909 272.913 247.744 272.28 248.44C271.054 249.745 269.638 250.858 268.08 251.74C266.546 252.788 264.903 253.667 263.18 254.36C261.352 254.924 259.483 255.349 257.59 255.63C252.07 256.69 246.18 258.76 241.06 256.43C238.88 255.43 237.06 253.73 234.93 252.69C232.8 251.65 229.83 251.51 228.29 253.35C227.71 254.05 227.16 255.07 226.29 254.94C226.027 254.88 225.779 254.768 225.56 254.61L220.96 251.72C220.478 251.459 220.063 251.09 219.75 250.64C219.515 250.064 219.432 249.437 219.51 248.82C219.566 246.077 218.995 243.358 217.84 240.87C216.77 238.58 215.17 236.23 215.67 233.75C215.685 233.679 215.705 233.609 215.73 233.54ZM215.8 222.75C216.29 224.61 216.99 226.54 216.6 228.42C216.42 227.34 216.08 226.26 215.8 225.2C215.321 223.518 215.152 221.763 215.3 220.02C215.389 220.942 215.557 221.856 215.8 222.75Z" fill="black"/>
<path opacity="0.1" d="M21.63 154.76C33.5759 154.76 43.26 145.076 43.26 133.13C43.26 121.184 33.5759 111.5 21.63 111.5C9.68408 111.5 0 121.184 0 133.13C0 145.076 9.68408 154.76 21.63 154.76Z" fill="#D417B6"/>
<path opacity="0.1" d="M608.74 63.62C620.686 63.62 630.37 53.9359 630.37 41.99C630.37 30.0441 620.686 20.36 608.74 20.36C596.794 20.36 587.11 30.0441 587.11 41.99C587.11 53.9359 596.794 63.62 608.74 63.62Z" fill="#D417B6"/>
<path opacity="0.1" d="M951.89 149.07C963.836 149.07 973.52 139.386 973.52 127.44C973.52 115.494 963.836 105.81 951.89 105.81C939.944 105.81 930.26 115.494 930.26 127.44C930.26 139.386 939.944 149.07 951.89 149.07Z" fill="#D417B6"/>
<path opacity="0.1" d="M64.88 288.71C84.9003 288.71 101.13 272.48 101.13 252.46C101.13 232.44 84.9003 216.21 64.88 216.21C44.8597 216.21 28.63 232.44 28.63 252.46C28.63 272.48 44.8597 288.71 64.88 288.71Z" fill="#D417B6"/>
<path opacity="0.1" d="M507.64 825.72C527.66 825.72 543.89 809.49 543.89 789.47C543.89 769.45 527.66 753.22 507.64 753.22C487.62 753.22 471.39 769.45 471.39 789.47C471.39 809.49 487.62 825.72 507.64 825.72Z" fill="#D417B6"/>
<path opacity="0.1" d="M990.55 804.82C1010.57 804.82 1026.8 788.59 1026.8 768.57C1026.8 748.55 1010.57 732.32 990.55 732.32C970.53 732.32 954.3 748.55 954.3 768.57C954.3 788.59 970.53 804.82 990.55 804.82Z" fill="#D417B6"/>
</g>
<defs>
<linearGradient id="paint0_linear_66_762" x1="268.55" y1="566.43" x2="268.55" y2="194.3" gradientUnits="userSpaceOnUse">
<stop stop-color="#808080" stop-opacity="0.25"/>
<stop offset="0.54" stop-color="#808080" stop-opacity="0.12"/>
<stop offset="1" stop-color="#808080" stop-opacity="0.1"/>
</linearGradient>
<clipPath id="clip0_66_762">
<rect width="1113.8" height="825.71" fill="white"/>
</clipPath>
</defs>
</svg>
