<svg width="966" height="690" viewBox="0 0 966 690" fill="none" xmlns="http://www.w3.org/2000/svg">
<g clip-path="url(#clip0_66_734)">
<path d="M103.353 576.32C103.353 615.238 80.216 628.827 51.676 628.827C23.136 628.827 0 615.238 0 576.32C0 537.402 51.676 487.892 51.676 487.892C51.676 487.892 103.353 537.402 103.353 576.32Z" fill="#F2F2F2"/>
<path d="M49.794 622.874L50.323 590.303L72.349 550.008L50.406 585.193L50.644 570.548L65.824 541.395L50.707 566.672L51.135 540.332L67.39 517.123L51.202 536.19L51.469 487.892L49.789 551.83L49.927 549.193L33.401 523.896L49.662 554.256L48.122 583.674L48.077 582.893L29.024 556.272L48.019 585.651L47.826 589.33L47.792 589.385L47.808 589.687L43.901 664.322H49.121L49.747 625.772L68.695 596.464L49.794 622.874Z" fill="#3F3D56"/>
<path d="M510.796 76.265C646.47 184.374 668.816 381.999 560.708 517.673C452.6 653.347 123.339 741.017 119.299 567.585C115.234 393.042 25.419 229.475 69.388 126.177C137.331 -33.443 375.122 -31.843 510.796 76.265Z" fill="#F2F2F2"/>
<path d="M150.353 690.003C229.882 690.003 294.353 679.258 294.353 666.003C294.353 652.748 229.882 642.003 150.353 642.003C70.824 642.003 6.353 652.748 6.353 666.003C6.353 679.258 70.824 690.003 150.353 690.003Z" fill="#3F3D56"/>
<path d="M886.762 669.775C925.927 669.775 957.676 664.483 957.676 657.956C957.676 651.428 925.927 646.137 886.762 646.137C847.597 646.137 815.848 651.428 815.848 657.956C815.848 664.483 847.597 669.775 886.762 669.775Z" fill="#3F3D56"/>
<path d="M143.353 160.003H965.353V604.003H143.353V160.003Z" fill="#3F3D56"/>
<path d="M143.353 124.003H965.353V165.003H143.353V124.003Z" fill="#3F3D56"/>
<path d="M163.353 149.003C167.219 149.003 170.353 145.869 170.353 142.003C170.353 138.137 167.219 135.003 163.353 135.003C159.487 135.003 156.353 138.137 156.353 142.003C156.353 145.869 159.487 149.003 163.353 149.003Z" fill="#D417B6"/>
<path d="M183.353 149.003C187.219 149.003 190.353 145.869 190.353 142.003C190.353 138.137 187.219 135.003 183.353 135.003C179.487 135.003 176.353 138.137 176.353 142.003C176.353 145.869 179.487 149.003 183.353 149.003Z" fill="#D417B6"/>
<path d="M203.353 149.003C207.219 149.003 210.353 145.869 210.353 142.003C210.353 138.137 207.219 135.003 203.353 135.003C199.487 135.003 196.353 138.137 196.353 142.003C196.353 145.869 199.487 149.003 203.353 149.003Z" fill="#D417B6"/>
<path opacity="0.1" d="M143.353 160.003H965.353V165.003H143.353V160.003Z" fill="black"/>
<path opacity="0.3" d="M190.853 230.503H352.853V403.503H190.853V230.503Z" fill="#D417B6"/>
<path d="M201.853 218.503H363.853V391.503H201.853V218.503Z" fill="#D417B6"/>
<path opacity="0.3" d="M784.853 227.728H909.396V360.728H784.853V227.728Z" fill="#D417B6"/>
<path d="M793.309 218.503H917.852V351.503H793.309V218.503Z" fill="#D417B6"/>
<path opacity="0.3" d="M784.853 412.503H909.396V545.503H784.853V412.503Z" fill="#D417B6"/>
<path d="M793.309 403.277H917.852V536.277H793.309V403.277ZM420.853 218.503H729.853V230.503H420.853V218.503ZM420.853 253.503H729.853V265.503H420.853V253.503ZM420.853 288.503H729.853V300.503H420.853V288.503ZM420.853 323.503H729.853V335.503H420.853V323.503ZM420.853 358.503H729.853V370.503H420.853V358.503ZM420.853 393.503H729.853V405.503H420.853V393.503ZM420.853 428.503H729.853V440.503H420.853V428.503ZM420.853 463.503H729.853V475.503H420.853V463.503ZM420.853 498.503H729.853V510.503H420.853V498.503ZM420.853 533.503H729.853V545.503H420.853V533.503Z" fill="#D417B6"/>
<path d="M126.339 312.882C138.213 312.882 147.839 303.256 147.839 291.382C147.839 279.508 138.213 269.882 126.339 269.882C114.465 269.882 104.839 279.508 104.839 291.382C104.839 303.256 114.465 312.882 126.339 312.882Z" fill="#A0616A"/>
<path d="M112.427 301.5C112.427 301.5 112.427 324.264 108.633 326.794C104.839 329.324 138.986 331.852 138.986 331.852V302.764L112.427 301.5ZM70.692 427.97C70.692 427.97 94.722 455.794 99.78 455.794C104.838 455.794 109.898 436.824 109.898 436.824L85.868 419.117L70.692 427.97ZM190.84 302.764L194.633 276.205C194.633 276.205 197.163 239.529 204.751 248.382C212.339 257.235 207.281 277.47 207.281 277.47C207.281 277.47 211.075 306.558 207.281 310.352C203.487 314.146 190.84 302.764 190.84 302.764Z" fill="#A0616A"/>
<path d="M169.34 445.676L101.045 439.353C101.045 439.353 92.192 481.088 94.721 497.53C97.25 513.972 98.515 560.765 98.515 560.765C98.515 560.765 101.045 645.501 104.839 650.56C108.633 655.619 121.28 654.354 125.074 656.883C128.868 659.412 135.192 651.824 135.192 650.56C135.192 649.296 127.604 649.295 131.398 641.707C135.192 634.119 121.28 612.618 125.074 602.501C128.868 592.384 135.192 578.471 131.398 573.412C127.604 568.353 133.928 503.853 133.928 503.853C133.928 503.853 165.545 549.383 165.545 569.618C165.545 589.853 163.015 636.648 161.751 641.707C160.487 646.766 159.221 648.03 161.751 651.824C164.281 655.618 166.81 659.413 165.545 660.677C164.28 661.941 188.31 660.677 188.31 653.089C188.31 645.501 187.045 645.501 189.575 639.177C192.105 632.853 193.369 556.971 193.369 556.971L169.34 445.676Z" fill="#3F175E"/>
<path d="M108.633 317.94L104.839 325.529C104.839 325.529 64.369 338.176 63.104 364.735L97.251 421.647C97.251 421.647 99.781 425.441 98.515 427.97C97.249 430.499 95.986 429.235 97.251 433.03C98.516 436.825 98.515 435.559 98.515 438.088C98.515 440.617 94.721 439.353 98.515 440.618C102.309 441.883 97.251 440.618 111.163 444.412C125.075 448.206 166.81 446.942 166.81 446.942L159.222 373.588L166.81 358.411L156.692 328.058C156.692 328.058 150.369 326.794 146.574 329.323C142.779 331.852 137.721 326.793 137.721 326.793C137.721 326.793 131.398 317.941 108.633 317.941V317.94Z" fill="#575A89"/>
<path d="M150.369 329.323L156.692 328.058C156.692 328.058 181.986 320.47 183.252 314.146C184.518 307.822 190.839 300.235 190.839 300.235C190.839 300.235 211.075 295.175 209.81 311.617C208.545 328.059 203.486 333.117 200.957 335.647C198.428 338.177 170.604 358.411 165.545 358.411C160.486 358.411 150.369 329.323 150.369 329.323ZM65.633 359.676L63.103 364.735L61.839 410.265C61.839 410.265 54.251 415.323 58.045 417.853C61.839 420.383 70.692 431.765 73.221 431.765C75.75 431.765 89.662 425.441 89.662 422.912C89.662 420.383 87.133 397.617 87.133 397.617L65.633 359.676Z" fill="#575A89"/>
<path d="M112.427 650.56C112.427 650.56 112.427 663.207 111.163 665.736C109.899 668.265 107.368 680.913 114.957 680.913C119.304 680.975 123.615 680.113 127.604 678.383C127.604 678.383 127.604 670.795 131.398 669.53C135.192 668.265 144.045 658.148 140.251 655.618C136.457 653.088 128.869 650.56 128.869 650.56H112.427ZM166.81 656.883C166.81 656.883 159.222 674.589 166.81 675.853C174.398 677.117 184.516 675.853 185.78 673.324C187.044 670.795 189.575 668.265 192.104 669.53C194.633 670.795 216.134 655.618 208.545 653.089C204.031 651.577 199.148 651.577 194.634 653.089L187.045 649.295L166.81 656.883ZM129.057 315.08C129.416 315.057 129.767 314.96 130.087 314.795C130.602 314.38 130.943 313.788 131.045 313.135L133.628 303.985C134.608 300.512 136.182 296.457 139.715 295.722C140.455 295.672 141.179 295.48 141.846 295.155C142.233 294.791 142.537 294.347 142.737 293.855C142.937 293.362 143.028 292.832 143.004 292.301L144.11 280.473C144.41 277.275 144.694 273.95 143.578 270.938C141.933 266.496 137.421 263.571 132.759 262.73C128.097 261.889 123.294 262.83 118.756 264.189C111.871 266.251 104.742 269.802 101.752 276.336C100.02 280.119 99.913 284.433 100.145 288.587C100.383 292.865 100.978 297.225 102.945 301.031C104.038 302.999 105.306 304.864 106.735 306.603C108.87 309.366 111.489 314.769 115.022 315.8C119.005 316.962 125.021 315.604 129.057 315.08ZM830.105 583.573C830.105 621.602 853.963 652.374 883.445 652.374Z" fill="#3F175E"/>
<path d="M883.446 652.374C883.446 613.918 910.069 582.799 942.971 582.799ZM849.432 587.02C849.432 623.143 864.645 652.374 883.446 652.374Z" fill="#D417B6"/>
<path d="M883.446 652.374C883.446 603.236 914.218 563.474 952.247 563.474Z" fill="#3F175E"/>
<path d="M872.224 652.86C872.224 652.86 879.789 652.626 882.069 651.003C884.349 649.38 893.705 647.441 894.27 650.045C894.835 652.649 905.639 662.994 897.098 663.062C888.557 663.13 877.254 661.732 874.978 660.346C872.702 658.96 872.224 652.86 872.224 652.86Z" fill="#A8A8A8"/>
<path opacity="0.2" d="M897.25 662.156C888.71 662.226 877.407 660.826 875.131 659.44C873.398 658.384 872.708 654.597 872.477 652.85L872.224 652.86C872.224 652.86 872.704 658.96 874.979 660.346C877.254 661.732 888.558 663.131 897.099 663.062C899.564 663.042 900.415 662.165 900.369 660.866C900.026 661.651 899.085 662.141 897.25 662.156Z" fill="black"/>
</g>
<defs>
<clipPath id="clip0_66_734">
<rect width="965.353" height="690.003" fill="white"/>
</clipPath>
</defs>
</svg>
